<svg id="svg" version="1.1" xmlns="http://www.w3.org/2000/svg" xmlns:xlink="http://www.w3.org/1999/xlink" width="400" height="337.2093023255814" viewBox="0, 0, 400,337.2093023255814"><g id="svgg"><path id="path0" d="M142.153 1.609 C 140.340 3.319,134.259 8.874,133.087 9.891 C 130.383 12.238,124.789 17.356,123.978 18.225 C 123.266 18.987,122.804 19.220,122.291 19.075 C 121.549 18.863,117.475 18.072,114.334 17.529 C 113.314 17.353,111.796 17.054,110.961 16.865 C 107.306 16.036,107.624 15.975,104.030 18.210 C 93.576 24.714,89.328 27.319,89.179 27.319 C 89.087 27.319,88.600 27.603,88.098 27.950 C 86.736 28.891,78.906 33.727,78.744 33.727 C 78.291 33.727,73.500 37.072,72.505 38.084 C 71.851 38.748,70.675 39.820,69.891 40.465 C 69.107 41.110,68.465 41.873,68.465 42.161 C 68.465 42.449,68.162 42.903,67.791 43.170 C 67.420 43.438,67.116 43.851,67.116 44.088 C 67.116 44.325,66.975 44.519,66.802 44.519 C 66.629 44.519,66.379 44.861,66.248 45.278 C 66.116 45.696,65.726 46.283,65.382 46.583 C 65.037 46.883,64.755 47.293,64.755 47.495 C 64.755 47.696,64.376 48.241,63.912 48.705 C 63.449 49.168,63.069 49.706,63.069 49.900 C 63.069 50.094,62.928 50.253,62.755 50.253 C 62.582 50.253,62.332 50.594,62.200 51.012 C 62.069 51.429,61.679 52.016,61.335 52.316 C 60.990 52.616,60.708 53.114,60.708 53.423 C 60.708 53.732,60.481 54.071,60.202 54.178 C 59.924 54.285,59.696 54.649,59.696 54.988 C 59.696 55.327,59.393 55.700,59.022 55.818 C 58.651 55.936,58.347 56.314,58.347 56.660 C 58.347 57.005,58.120 57.515,57.841 57.793 C 57.563 58.072,57.336 58.406,57.336 58.537 C 57.336 58.667,57.054 59.020,56.709 59.320 C 56.365 59.620,55.975 60.207,55.843 60.624 C 55.712 61.041,55.462 61.383,55.289 61.383 C 55.116 61.383,54.975 61.545,54.975 61.744 C 54.975 61.943,54.747 62.333,54.469 62.611 C 54.191 62.890,53.963 63.400,53.963 63.745 C 53.963 64.090,53.659 64.469,53.288 64.587 C 52.917 64.705,52.614 65.094,52.614 65.453 C 52.614 65.811,52.462 66.105,52.277 66.105 C 52.091 66.105,51.939 66.298,51.939 66.535 C 51.939 66.834,51.527 66.926,50.590 66.837 C 49.848 66.766,49.241 66.572,49.241 66.406 C 49.241 66.240,48.710 66.105,48.061 66.105 C 47.411 66.105,46.880 65.953,46.880 65.767 C 46.880 65.582,46.501 65.430,46.037 65.430 C 45.573 65.430,45.194 65.294,45.194 65.127 C 45.194 64.960,44.132 64.717,42.833 64.587 C 41.535 64.456,40.472 64.213,40.472 64.047 C 40.472 63.880,39.941 63.744,39.292 63.744 C 38.642 63.744,38.111 63.592,38.111 63.406 C 38.111 63.221,37.732 63.069,37.268 63.069 C 36.804 63.069,36.425 62.933,36.425 62.766 C 36.425 62.599,35.363 62.356,34.064 62.226 C 32.766 62.096,31.703 61.853,31.703 61.686 C 31.703 61.519,31.096 61.383,30.354 61.383 C 28.377 61.383,28.490 61.813,32.030 67.791 C 32.744 68.997,33.736 70.774,34.235 71.740 C 34.733 72.706,35.354 73.673,35.614 73.889 C 35.875 74.105,36.088 74.461,36.088 74.680 C 36.088 74.899,36.514 75.753,37.035 76.578 C 37.557 77.403,38.422 78.912,38.959 79.933 C 39.495 80.953,40.114 82.015,40.334 82.293 C 40.554 82.572,41.168 83.600,41.699 84.578 C 42.230 85.556,42.998 86.922,43.405 87.613 C 43.813 88.305,44.395 89.354,44.698 89.945 C 45.093 90.714,45.410 90.960,45.812 90.809 C 46.283 90.633,46.306 90.684,45.951 91.120 C 45.604 91.548,45.650 91.797,46.210 92.509 C 47.023 93.543,47.466 93.164,41.990 96.117 C 40.506 96.918,39.140 97.685,38.954 97.823 C 38.579 98.102,37.222 98.866,33.821 100.714 C 30.930 102.285,28.251 103.753,26.307 104.831 C 25.472 105.294,24.486 105.838,24.115 106.040 C 23.744 106.243,23.364 106.492,23.272 106.594 C 23.179 106.697,22.496 107.061,21.754 107.403 C 21.012 107.745,20.329 108.117,20.236 108.229 C 20.143 108.341,19.612 108.656,19.056 108.928 C 17.428 109.725,14.344 111.697,14.220 112.020 C 14.158 112.184,13.437 113.296,12.618 114.491 C 11.800 115.687,11.130 116.754,11.130 116.864 C 11.130 116.973,10.371 118.187,9.444 119.562 C 8.516 120.936,7.757 122.219,7.757 122.413 C 7.757 122.607,7.605 122.766,7.420 122.766 C 7.234 122.766,7.083 122.911,7.083 123.089 C 7.083 123.391,6.399 124.503,2.782 130.086 C 1.994 131.303,1.349 132.558,1.349 132.876 C 1.349 133.194,1.046 133.728,0.675 134.064 C 0.009 134.666,-0.455 174.368,0.204 174.368 C 0.391 174.368,3.876 171.307,7.884 167.622 C 9.953 165.720,9.509 166.118,14.569 161.635 C 16.924 159.549,19.068 157.841,19.333 157.841 C 19.598 157.841,19.907 157.424,20.020 156.914 C 20.218 156.020,20.665 155.626,24.599 152.893 C 25.445 152.304,26.290 151.695,26.476 151.539 C 26.661 151.382,27.648 150.652,28.668 149.916 C 29.688 149.179,30.826 148.301,31.196 147.963 C 31.566 147.626,32.629 146.870,33.557 146.283 C 34.485 145.696,35.320 145.135,35.413 145.036 C 35.804 144.620,41.128 140.641,41.294 140.641 C 41.394 140.641,41.744 140.421,42.070 140.152 C 43.635 138.863,50.021 134.233,50.232 134.233 C 50.838 134.233,51.990 132.564,51.800 131.964 C 51.688 131.612,51.446 129.891,51.262 128.141 C 50.910 124.791,50.639 122.457,49.741 115.008 C 49.440 112.504,49.060 109.241,48.898 107.757 C 48.409 103.279,47.576 96.368,47.368 95.070 C 47.128 93.567,47.429 93.397,50.927 93.059 C 52.319 92.924,55.089 92.648,57.083 92.444 C 61.446 91.999,66.130 91.547,73.356 90.874 C 76.324 90.597,80.194 90.234,81.956 90.068 C 83.718 89.901,87.209 89.598,89.713 89.395 C 92.218 89.193,94.613 88.949,95.036 88.855 C 95.459 88.761,97.584 88.527,99.758 88.336 C 104.307 87.936,107.759 87.469,106.681 87.400 C 106.275 87.374,105.859 87.217,105.757 87.053 C 105.655 86.888,105.152 86.648,104.641 86.521 C 104.129 86.393,103.255 86.089,102.698 85.845 C 102.142 85.601,101.003 85.178,100.169 84.905 C 99.334 84.632,97.133 83.851,95.278 83.170 C 93.423 82.489,91.223 81.702,90.388 81.421 C 89.553 81.140,88.567 80.784,88.196 80.630 C 86.557 79.950,84.721 79.267,83.474 78.872 C 82.732 78.638,81.981 78.325,81.804 78.177 C 81.628 78.030,81.165 77.909,80.776 77.909 C 80.386 77.909,79.923 77.765,79.747 77.589 C 79.571 77.413,78.033 76.814,76.331 76.258 C 74.628 75.701,72.958 75.090,72.621 74.899 C 72.283 74.708,70.867 74.182,69.473 73.730 C 67.179 72.986,66.401 72.701,64.250 71.813 C 63.879 71.660,62.892 71.314,62.057 71.044 C 60.685 70.600,59.959 70.326,57.841 69.452 C 57.470 69.299,56.428 68.934,55.525 68.641 C 51.960 67.485,51.672 66.477,55.143 67.306 C 56.256 67.572,58.685 67.951,60.540 68.147 C 67.503 68.885,69.426 69.103,73.862 69.656 C 80.424 70.475,82.224 70.692,87.690 71.324 C 90.379 71.635,93.567 72.026,94.772 72.193 C 95.978 72.359,98.488 72.640,100.351 72.817 C 102.213 72.993,104.166 73.333,104.691 73.572 C 105.551 73.963,105.704 73.933,106.249 73.259 C 106.591 72.836,107.232 72.513,107.727 72.513 C 108.207 72.513,108.600 72.361,108.600 72.175 C 108.600 71.990,108.828 71.838,109.106 71.838 C 109.384 71.838,109.612 71.693,109.612 71.516 C 109.612 71.339,110.143 71.094,110.793 70.973 C 111.442 70.851,111.973 70.616,111.973 70.452 C 111.973 70.287,112.201 70.152,112.479 70.152 C 112.757 70.152,112.985 70.000,112.985 69.815 C 112.985 69.629,113.288 69.477,113.659 69.477 C 114.030 69.477,114.334 69.327,114.334 69.144 C 114.334 68.961,114.941 68.714,115.683 68.595 C 116.425 68.476,117.032 68.247,117.032 68.085 C 117.032 67.923,117.336 67.791,117.707 67.791 C 118.078 67.791,118.381 67.646,118.381 67.469 C 118.381 67.292,118.912 67.047,119.562 66.925 C 120.211 66.804,120.742 66.569,120.742 66.404 C 120.742 66.239,120.970 66.105,121.248 66.105 C 121.526 66.105,121.754 65.953,121.754 65.767 C 121.754 65.582,122.057 65.430,122.428 65.430 C 122.799 65.430,123.103 65.285,123.103 65.108 C 123.103 64.931,123.643 64.685,124.302 64.561 C 125.061 64.419,125.712 64.014,126.073 63.461 C 126.982 62.068,128.431 60.708,129.004 60.708 C 129.295 60.708,129.619 60.481,129.726 60.202 C 129.833 59.924,130.172 59.696,130.479 59.696 C 130.786 59.696,131.322 59.317,131.670 58.853 C 132.019 58.390,132.576 58.010,132.908 58.010 C 133.241 58.010,133.609 57.707,133.727 57.336 C 133.845 56.965,134.179 56.661,134.470 56.661 C 134.761 56.661,135.350 56.282,135.780 55.818 C 136.210 55.354,136.741 54.975,136.960 54.975 C 137.180 54.975,137.711 54.595,138.141 54.132 C 138.571 53.668,139.147 53.288,139.422 53.288 C 139.696 53.288,140.011 53.003,140.122 52.654 C 140.234 52.302,140.758 51.933,141.298 51.825 C 141.874 51.710,142.362 51.348,142.491 50.941 C 142.614 50.556,143.002 50.253,143.372 50.253 C 143.737 50.253,144.122 50.025,144.229 49.747 C 144.336 49.469,144.674 49.241,144.981 49.241 C 145.288 49.241,145.825 48.862,146.173 48.398 C 146.521 47.934,147.033 47.555,147.310 47.555 C 147.827 47.555,149.073 46.327,149.073 45.817 C 149.073 45.660,149.381 45.531,149.758 45.531 C 150.134 45.531,150.530 45.304,150.637 45.025 C 150.744 44.747,151.063 44.519,151.346 44.519 C 151.630 44.519,152.214 44.140,152.643 43.676 C 153.073 43.212,153.604 42.833,153.823 42.833 C 154.042 42.833,154.496 42.516,154.833 42.128 C 155.169 41.740,155.606 41.521,155.802 41.643 C 156.160 41.864,157.766 41.436,159.747 40.589 C 160.332 40.339,161.044 40.135,161.330 40.135 C 161.615 40.135,161.943 39.983,162.057 39.798 C 162.172 39.612,162.562 39.460,162.925 39.460 C 163.288 39.460,163.848 39.326,164.170 39.162 C 165.040 38.720,166.242 38.250,168.128 37.615 C 169.056 37.303,170.118 36.919,170.489 36.762 C 170.860 36.606,171.922 36.222,172.850 35.910 C 173.777 35.597,174.840 35.218,175.211 35.067 C 175.582 34.916,177.024 34.389,178.415 33.895 C 179.806 33.402,181.248 32.871,181.619 32.715 C 183.255 32.028,187.061 30.691,187.381 30.691 C 187.574 30.691,188.329 30.406,189.060 30.056 C 189.790 29.707,190.879 29.316,191.480 29.187 C 192.081 29.059,192.659 28.813,192.765 28.642 C 192.871 28.471,193.297 28.331,193.713 28.331 C 194.129 28.331,194.613 28.197,194.789 28.035 C 194.965 27.872,195.944 27.482,196.965 27.167 C 198.739 26.621,199.404 26.375,201.096 25.640 C 201.513 25.459,202.614 25.072,203.541 24.780 C 204.469 24.488,205.531 24.123,205.902 23.969 C 206.273 23.815,207.260 23.428,208.094 23.109 C 208.929 22.790,210.081 22.331,210.654 22.088 L 211.696 21.648 211.577 16.304 C 211.511 13.366,211.367 8.495,211.257 5.481 L 211.058 0.000 177.451 0.007 L 143.845 0.015 142.153 1.609 " stroke="none" fill="#545454" fill-rule="evenodd"></path><path id="path1" d="M211.301 7.841 C 211.399 12.154,211.551 17.014,211.638 18.641 L 211.798 21.599 210.705 22.064 C 210.104 22.320,208.929 22.790,208.094 23.109 C 207.260 23.428,206.273 23.815,205.902 23.969 C 205.531 24.123,204.469 24.488,203.541 24.780 C 202.614 25.072,201.551 25.438,201.180 25.595 C 200.809 25.751,200.126 26.041,199.663 26.238 C 199.199 26.435,197.985 26.853,196.965 27.167 C 195.944 27.482,194.965 27.872,194.789 28.035 C 194.613 28.197,194.129 28.331,193.713 28.331 C 193.297 28.331,192.871 28.471,192.765 28.642 C 192.659 28.813,192.081 29.059,191.480 29.187 C 190.879 29.316,189.790 29.707,189.060 30.056 C 188.329 30.406,187.574 30.691,187.381 30.691 C 187.061 30.691,183.255 32.028,181.619 32.715 C 181.248 32.871,179.806 33.402,178.415 33.895 C 177.024 34.389,175.582 34.916,175.211 35.067 C 174.840 35.218,173.777 35.597,172.850 35.910 C 171.922 36.222,170.860 36.606,170.489 36.762 C 170.118 36.919,169.056 37.303,168.128 37.615 C 166.242 38.250,165.040 38.720,164.170 39.162 C 163.848 39.326,163.288 39.460,162.925 39.460 C 162.562 39.460,162.172 39.612,162.057 39.798 C 161.943 39.983,161.615 40.135,161.330 40.135 C 161.044 40.135,160.332 40.339,159.747 40.589 C 157.766 41.436,156.160 41.864,155.802 41.643 C 155.606 41.521,155.169 41.740,154.833 42.128 C 154.496 42.516,154.042 42.833,153.823 42.833 C 153.604 42.833,153.073 43.212,152.643 43.676 C 152.214 44.140,151.630 44.519,151.346 44.519 C 151.063 44.519,150.744 44.747,150.637 45.025 C 150.530 45.304,150.134 45.531,149.758 45.531 C 149.381 45.531,149.073 45.660,149.073 45.817 C 149.073 46.327,147.827 47.555,147.310 47.555 C 147.033 47.555,146.521 47.934,146.173 48.398 C 145.825 48.862,145.288 49.241,144.981 49.241 C 144.674 49.241,144.336 49.469,144.229 49.747 C 144.122 50.025,143.737 50.253,143.372 50.253 C 143.002 50.253,142.614 50.556,142.491 50.941 C 142.362 51.348,141.874 51.710,141.298 51.825 C 140.758 51.933,140.234 52.302,140.122 52.654 C 140.011 53.003,139.696 53.288,139.422 53.288 C 139.147 53.288,138.571 53.668,138.141 54.132 C 137.711 54.595,137.180 54.975,136.960 54.975 C 136.741 54.975,136.210 55.354,135.780 55.818 C 135.350 56.282,134.761 56.661,134.470 56.661 C 134.179 56.661,133.845 56.965,133.727 57.336 C 133.609 57.707,133.241 58.010,132.908 58.010 C 132.576 58.010,132.019 58.390,131.670 58.853 C 131.322 59.317,130.786 59.696,130.479 59.696 C 130.172 59.696,129.833 59.924,129.726 60.202 C 129.619 60.481,129.295 60.708,129.004 60.708 C 128.431 60.708,126.982 62.068,126.073 63.461 C 125.712 64.014,125.061 64.419,124.302 64.561 C 123.643 64.685,123.103 64.931,123.103 65.108 C 123.103 65.285,122.799 65.430,122.428 65.430 C 122.057 65.430,121.754 65.582,121.754 65.767 C 121.754 65.953,121.526 66.105,121.248 66.105 C 120.970 66.105,120.742 66.239,120.742 66.404 C 120.742 66.569,120.211 66.804,119.562 66.925 C 118.912 67.047,118.381 67.292,118.381 67.469 C 118.381 67.646,118.078 67.791,117.707 67.791 C 117.336 67.791,117.032 67.923,117.032 68.085 C 117.032 68.247,116.425 68.476,115.683 68.595 C 114.941 68.714,114.334 68.961,114.334 69.144 C 114.334 69.327,114.030 69.477,113.659 69.477 C 113.288 69.477,112.985 69.629,112.985 69.815 C 112.985 70.000,112.757 70.152,112.479 70.152 C 112.201 70.152,111.973 70.287,111.973 70.452 C 111.973 70.616,111.442 70.851,110.793 70.973 C 110.143 71.094,109.612 71.339,109.612 71.516 C 109.612 71.693,109.384 71.838,109.106 71.838 C 108.828 71.838,108.600 71.990,108.600 72.175 C 108.600 72.361,108.207 72.513,107.727 72.513 C 107.232 72.513,106.591 72.836,106.249 73.259 C 105.704 73.933,105.551 73.963,104.691 73.572 C 104.166 73.333,102.213 72.993,100.351 72.817 C 98.488 72.640,95.978 72.359,94.772 72.193 C 93.567 72.026,90.379 71.635,87.690 71.324 C 82.224 70.692,80.424 70.475,73.862 69.656 C 69.426 69.103,67.503 68.885,60.540 68.147 C 58.685 67.951,56.256 67.572,55.143 67.306 C 51.672 66.477,51.960 67.485,55.525 68.641 C 56.428 68.934,57.470 69.299,57.841 69.452 C 59.959 70.326,60.685 70.600,62.057 71.044 C 62.892 71.314,63.879 71.660,64.250 71.813 C 66.401 72.701,67.179 72.986,69.473 73.730 C 70.867 74.182,72.283 74.708,72.621 74.899 C 72.958 75.090,74.628 75.701,76.331 76.258 C 78.033 76.814,79.571 77.413,79.747 77.589 C 79.923 77.765,80.386 77.909,80.776 77.909 C 81.165 77.909,81.628 78.030,81.804 78.177 C 81.981 78.325,82.732 78.638,83.474 78.872 C 84.721 79.267,86.557 79.950,88.196 80.630 C 88.567 80.784,89.553 81.140,90.388 81.421 C 91.223 81.702,93.423 82.489,95.278 83.170 C 97.133 83.851,99.334 84.632,100.169 84.905 C 101.003 85.178,102.142 85.601,102.698 85.845 C 103.255 86.089,104.129 86.393,104.641 86.521 C 105.152 86.648,105.655 86.888,105.757 87.053 C 105.859 87.217,106.275 87.374,106.681 87.400 C 107.759 87.469,104.307 87.936,99.758 88.336 C 97.584 88.527,95.459 88.761,95.036 88.855 C 94.613 88.949,92.218 89.193,89.713 89.395 C 87.209 89.598,83.718 89.901,81.956 90.068 C 80.194 90.234,76.324 90.597,73.356 90.874 C 66.130 91.547,61.446 91.999,57.083 92.444 C 55.089 92.648,52.319 92.924,50.927 93.059 C 47.429 93.397,47.128 93.567,47.368 95.070 C 47.576 96.368,48.409 103.279,48.898 107.757 C 49.060 109.241,49.440 112.504,49.741 115.008 C 50.639 122.457,50.910 124.791,51.262 128.141 C 51.446 129.891,51.688 131.612,51.800 131.964 C 51.990 132.564,50.838 134.233,50.232 134.233 C 50.021 134.233,43.635 138.863,42.070 140.152 C 41.744 140.421,41.394 140.641,41.294 140.641 C 41.128 140.641,35.804 144.620,35.413 145.036 C 35.320 145.135,34.485 145.696,33.557 146.283 C 32.629 146.870,31.566 147.626,31.196 147.963 C 30.826 148.301,29.688 149.179,28.668 149.916 C 27.648 150.652,26.661 151.382,26.476 151.539 C 26.290 151.695,25.445 152.304,24.599 152.893 C 20.665 155.626,20.218 156.020,20.020 156.914 C 19.907 157.424,19.598 157.841,19.333 157.841 C 18.964 157.841,13.555 162.397,9.922 165.767 C 8.544 167.045,3.548 171.514,1.967 172.882 L 0.055 174.536 0.028 208.853 C 0.012 227.728,0.084 243.170,0.187 243.170 C 0.289 243.170,1.390 242.367,2.632 241.385 C 3.874 240.403,7.546 237.607,10.793 235.171 C 14.039 232.736,17.172 230.314,17.755 229.790 C 18.338 229.265,19.704 228.141,20.790 227.292 C 34.006 216.957,35.392 215.761,35.979 214.194 C 36.297 213.343,36.831 212.150,37.166 211.541 C 37.500 210.933,37.774 210.298,37.774 210.131 C 37.774 209.964,38.215 208.869,38.753 207.696 C 39.292 206.524,40.142 204.578,40.642 203.373 C 41.143 202.167,41.933 200.346,42.398 199.325 C 42.862 198.305,43.514 196.788,43.845 195.953 C 44.176 195.118,44.827 193.600,45.292 192.580 C 45.757 191.560,46.547 189.739,47.049 188.533 C 47.550 187.327,48.325 185.539,48.770 184.560 C 49.214 183.581,49.578 182.698,49.578 182.599 C 49.578 182.500,49.937 181.632,50.375 180.670 C 50.814 179.708,51.660 177.782,52.256 176.391 C 52.852 175.000,53.578 173.338,53.868 172.697 C 54.306 171.733,54.352 170.834,54.139 167.470 C 53.743 161.216,53.394 155.279,52.987 147.892 C 52.783 144.182,52.459 139.413,52.267 137.294 C 51.990 134.231,52.007 133.386,52.351 133.168 C 52.949 132.788,53.626 132.816,53.626 133.221 C 53.626 133.406,54.460 133.558,55.481 133.558 C 56.501 133.558,57.336 133.692,57.336 133.855 C 57.336 134.019,58.777 134.261,60.540 134.393 C 62.302 134.525,63.744 134.771,63.744 134.939 C 63.744 135.107,64.503 135.245,65.430 135.245 C 66.358 135.245,67.116 135.378,67.116 135.542 C 67.116 135.705,68.558 135.947,70.320 136.079 C 72.083 136.211,73.524 136.457,73.524 136.625 C 73.524 136.793,74.283 136.931,75.211 136.931 C 76.138 136.931,76.897 137.083,76.897 137.268 C 76.897 137.454,77.580 137.605,78.415 137.605 C 79.250 137.605,79.933 137.743,79.933 137.910 C 79.933 138.078,81.526 138.324,83.474 138.456 C 85.422 138.589,87.015 138.831,87.015 138.995 C 87.015 139.158,87.622 139.292,88.364 139.292 C 89.106 139.292,89.713 139.425,89.713 139.589 C 89.713 139.752,91.307 139.994,93.255 140.127 C 95.202 140.260,96.796 140.506,96.796 140.673 C 96.796 140.841,97.479 140.978,98.314 140.978 C 99.148 140.978,99.831 141.130,99.831 141.315 C 99.831 141.501,100.590 141.653,101.518 141.653 C 102.445 141.653,103.204 141.804,103.204 141.990 C 103.204 142.175,103.490 142.327,103.839 142.327 C 104.438 142.327,104.488 141.831,104.722 133.558 C 104.858 128.735,105.104 124.789,105.267 124.789 C 105.431 124.789,105.565 122.664,105.565 120.067 C 105.565 117.470,105.699 115.346,105.864 115.346 C 106.028 115.346,106.275 111.172,106.411 106.071 C 106.548 100.970,106.793 96.796,106.955 96.796 C 107.118 96.796,107.251 94.980,107.251 92.761 C 107.251 88.591,107.535 87.796,108.854 88.269 C 109.123 88.366,109.201 88.228,109.070 87.887 C 108.910 87.468,109.098 87.352,109.935 87.352 C 110.524 87.352,114.329 87.190,118.392 86.992 C 123.126 86.761,125.986 86.748,126.357 86.955 C 126.761 87.182,127.076 87.138,127.404 86.810 C 127.986 86.228,156.830 86.099,156.830 86.678 C 156.830 86.863,157.057 87.015,157.336 87.015 C 158.322 87.015,157.515 85.929,156.224 85.519 C 155.815 85.390,155.481 85.142,155.481 84.969 C 155.481 84.796,155.309 84.654,155.099 84.654 C 154.888 84.654,154.471 84.372,154.171 84.028 C 153.871 83.684,153.284 83.294,152.867 83.162 C 152.449 83.030,152.108 82.781,152.108 82.608 C 152.108 82.435,151.821 82.293,151.469 82.293 C 151.118 82.293,150.744 82.066,150.637 81.788 C 150.530 81.509,150.145 81.282,149.780 81.282 C 149.414 81.282,149.022 80.980,148.904 80.607 C 148.786 80.236,148.396 79.933,148.038 79.933 C 147.679 79.933,147.386 79.791,147.386 79.618 C 147.386 79.445,147.045 79.196,146.627 79.064 C 146.210 78.932,145.623 78.542,145.323 78.198 C 145.023 77.854,144.606 77.572,144.396 77.572 C 144.185 77.572,144.013 77.430,144.013 77.257 C 144.013 77.084,143.672 76.835,143.255 76.703 C 142.837 76.571,142.250 76.182,141.950 75.837 C 141.650 75.493,141.152 75.211,140.844 75.211 C 140.535 75.211,140.195 74.983,140.088 74.705 C 139.981 74.427,139.617 74.199,139.278 74.199 C 138.940 74.199,138.566 73.895,138.449 73.524 C 138.331 73.153,137.952 72.850,137.607 72.850 C 137.262 72.850,136.751 72.622,136.473 72.344 C 136.195 72.066,135.860 71.838,135.730 71.838 C 135.599 71.838,135.247 71.556,134.947 71.212 C 134.647 70.867,134.060 70.478,133.642 70.346 C 133.225 70.214,132.884 69.965,132.884 69.792 C 132.884 69.619,132.656 69.477,132.378 69.477 C 132.099 69.477,131.872 69.325,131.872 69.140 C 131.872 68.954,131.579 68.803,131.221 68.803 C 130.864 68.803,130.343 68.575,130.065 68.297 C 129.787 68.019,129.452 67.791,129.322 67.791 C 129.191 67.791,128.839 67.509,128.539 67.165 C 128.239 66.820,127.668 66.436,127.271 66.310 C 126.539 66.079,125.959 64.786,126.402 64.373 C 126.749 64.050,136.487 64.594,148.229 65.591 C 153.794 66.064,161.459 66.605,165.261 66.793 C 169.064 66.982,172.441 67.218,172.766 67.318 C 173.706 67.607,173.474 66.694,172.175 64.993 C 171.526 64.143,170.995 63.371,170.995 63.278 C 170.995 63.185,170.046 61.728,168.887 60.040 C 167.728 58.351,166.627 56.707,166.442 56.386 C 165.752 55.194,160.005 46.642,158.611 44.735 C 156.632 42.027,157.083 41.434,160.202 42.647 C 160.852 42.899,162.521 43.510,163.912 44.003 C 165.304 44.497,166.897 45.101,167.454 45.345 C 168.010 45.589,169.073 45.972,169.815 46.195 C 170.556 46.418,171.661 46.825,172.270 47.099 C 172.878 47.372,174.206 47.890,175.221 48.250 C 176.236 48.610,177.896 49.198,178.911 49.558 C 179.925 49.918,181.253 50.440,181.862 50.719 C 182.470 50.998,183.909 51.527,185.059 51.896 C 186.209 52.265,187.651 52.780,188.263 53.041 C 188.875 53.302,190.135 53.785,191.062 54.114 C 191.990 54.443,193.505 54.999,194.430 55.350 C 197.282 56.430,196.345 57.970,202.861 41.484 C 205.390 35.084,207.587 29.545,207.742 29.174 C 207.898 28.803,208.250 27.968,208.523 27.319 C 208.797 26.669,209.284 25.429,209.605 24.562 C 210.504 22.138,210.623 22.118,221.283 22.561 C 230.209 22.933,230.457 22.926,231.529 22.263 C 232.133 21.890,235.873 20.512,239.838 19.201 C 243.804 17.890,247.352 16.694,247.723 16.543 C 248.094 16.392,249.688 15.863,251.265 15.368 C 252.841 14.872,254.435 14.335,254.806 14.174 C 257.478 13.012,279.305 6.110,279.758 6.284 C 280.135 6.429,280.285 6.346,280.213 6.032 C 280.111 5.586,280.674 3.403,281.317 1.755 C 282.051 -0.128,284.593 0.000,246.371 0.000 L 211.124 0.000 211.301 7.841 " stroke="none" fill="#4c4c4c" fill-rule="evenodd"></path><path id="path2" d="M333.084 133.765 C 332.961 134.085,333.003 134.435,333.176 134.543 C 333.350 134.651,333.600 135.460,333.732 136.341 C 333.864 137.222,334.107 137.943,334.271 137.943 C 334.435 137.943,334.570 138.398,334.570 138.954 C 334.570 139.511,334.722 139.966,334.907 139.966 C 335.093 139.966,335.245 140.346,335.245 140.809 C 335.245 141.273,335.382 141.653,335.550 141.653 C 335.718 141.653,335.960 142.411,336.088 143.339 C 336.215 144.266,336.457 145.025,336.625 145.025 C 336.793 145.025,336.931 145.405,336.931 145.868 C 336.931 146.332,337.083 146.712,337.268 146.712 C 337.454 146.712,337.605 147.167,337.605 147.723 C 337.605 148.280,337.743 148.735,337.911 148.735 C 338.079 148.735,338.321 149.494,338.449 150.422 C 338.576 151.349,338.818 152.108,338.986 152.108 C 339.154 152.108,339.292 152.475,339.292 152.923 C 339.292 153.371,339.453 153.792,339.651 153.858 C 339.848 153.924,340.096 154.619,340.201 155.404 C 340.306 156.188,340.524 156.830,340.685 156.830 C 340.846 156.830,340.978 157.209,340.978 157.673 C 340.978 158.137,341.130 158.516,341.315 158.516 C 341.501 158.516,341.653 158.895,341.653 159.359 C 341.653 159.823,341.790 160.202,341.958 160.202 C 342.126 160.202,342.368 160.961,342.496 161.889 C 342.623 162.816,342.865 163.575,343.033 163.575 C 343.201 163.575,343.339 163.727,343.339 163.912 C 343.339 164.109,342.215 164.250,340.641 164.250 C 339.157 164.250,337.943 164.115,337.943 163.951 C 337.943 163.787,335.059 163.542,331.535 163.406 C 328.010 163.271,325.126 163.026,325.126 162.862 C 325.126 162.697,323.836 162.563,322.260 162.563 C 320.683 162.563,319.393 162.429,319.393 162.265 C 319.393 162.101,316.509 161.856,312.985 161.720 C 309.460 161.584,306.577 161.339,306.577 161.175 C 306.577 161.011,305.373 160.877,303.903 160.877 C 301.359 160.877,300.592 161.131,300.103 162.136 C 300.034 162.278,292.925 169.405,284.305 177.973 L 268.634 193.551 263.238 194.956 C 260.270 195.729,257.310 196.482,256.661 196.630 C 256.012 196.778,254.570 197.158,253.457 197.474 C 250.653 198.271,249.268 198.647,247.892 198.988 C 247.243 199.149,246.180 199.436,245.531 199.625 C 243.443 200.235,240.328 201.060,239.460 201.232 C 238.997 201.324,238.314 201.525,237.943 201.677 C 237.572 201.830,236.266 202.209,235.040 202.519 L 232.812 203.084 232.589 217.647 C 232.466 225.656,232.254 232.965,232.118 233.888 L 231.872 235.568 230.017 236.001 C 227.684 236.545,226.125 236.896,222.934 237.595 C 221.543 237.900,219.874 238.274,219.224 238.427 C 214.926 239.440,209.701 240.592,208.305 240.834 C 206.788 241.097,205.396 241.904,205.396 242.519 C 205.396 242.741,201.987 249.822,195.419 263.238 C 192.641 268.914,193.956 268.646,184.487 265.465 C 180.012 263.962,176.227 262.732,176.074 262.732 C 175.810 262.732,173.592 267.481,171.349 272.850 C 169.473 277.339,168.587 279.391,167.780 281.113 C 167.053 282.663,166.318 284.371,164.008 289.882 C 162.936 292.440,161.299 296.224,160.507 297.976 C 159.074 301.146,158.841 301.940,159.212 302.387 C 159.489 302.721,159.330 302.952,158.540 303.360 C 157.302 304.001,157.241 304.647,158.155 307.449 C 158.514 308.546,159.049 310.506,159.345 311.804 C 159.641 313.103,160.169 315.152,160.519 316.358 C 160.869 317.563,161.402 319.536,161.704 320.742 C 162.007 321.948,162.537 323.921,162.884 325.126 C 163.230 326.332,163.929 328.912,164.438 330.860 C 164.947 332.808,165.485 334.561,165.635 334.756 C 165.962 335.181,165.644 336.594,165.222 336.594 C 165.058 336.594,164.924 336.745,164.924 336.931 C 164.924 337.155,204.328 337.268,282.462 337.268 L 400.000 337.268 400.000 239.460 C 400.000 143.295,399.989 141.653,399.354 141.653 C 398.998 141.653,398.644 141.842,398.567 142.074 C 398.462 142.389,396.620 142.523,391.288 142.605 C 387.203 142.667,384.148 142.847,384.148 143.026 C 384.148 143.210,380.544 143.339,375.379 143.339 C 369.044 143.339,366.610 143.446,366.610 143.723 C 366.610 144.182,363.630 143.908,362.673 143.362 C 362.335 143.169,360.160 142.393,357.841 141.639 C 353.678 140.284,353.088 140.073,351.433 139.351 C 350.970 139.149,346.948 137.775,342.496 136.298 C 338.044 134.821,334.155 133.516,333.855 133.398 C 333.507 133.261,333.227 133.394,333.084 133.765 " stroke="none" fill="#1c1c1c" fill-rule="evenodd"></path><path id="path3" d="M312.832 2.706 C 310.059 4.140,307.428 5.636,306.986 6.029 C 306.544 6.423,305.899 6.745,305.553 6.745 C 305.034 6.745,304.884 7.101,304.695 8.769 C 304.569 9.882,304.334 10.793,304.172 10.793 C 304.011 10.793,303.879 11.324,303.879 11.973 C 303.879 12.622,303.727 13.153,303.541 13.153 C 303.356 13.153,303.204 13.685,303.204 14.334 C 303.204 14.983,303.060 15.514,302.884 15.514 C 302.707 15.514,302.460 16.425,302.334 17.538 C 302.208 18.651,301.973 19.562,301.811 19.562 C 301.650 19.562,301.518 20.093,301.518 20.742 C 301.518 21.391,301.366 21.922,301.180 21.922 C 300.995 21.922,300.843 22.454,300.843 23.103 C 300.843 23.752,300.709 24.283,300.545 24.283 C 300.381 24.283,300.142 25.270,300.012 26.476 C 299.883 27.681,299.638 28.668,299.467 28.668 C 299.297 28.668,299.157 29.199,299.157 29.848 C 299.157 30.497,299.005 31.029,298.820 31.029 C 298.634 31.029,298.482 31.484,298.482 32.040 C 298.482 32.597,298.331 33.052,298.145 33.052 C 297.960 33.052,297.808 32.760,297.808 32.402 C 297.808 32.044,297.580 31.524,297.302 31.245 C 297.024 30.967,296.796 30.577,296.796 30.378 C 296.796 30.179,296.647 30.017,296.465 30.017 C 296.283 30.017,296.039 29.637,295.923 29.174 C 295.806 28.710,295.576 28.331,295.410 28.331 C 295.245 28.331,295.110 28.037,295.110 27.679 C 295.110 27.320,294.806 26.931,294.435 26.813 C 294.064 26.695,293.761 26.316,293.761 25.971 C 293.761 25.626,293.533 25.116,293.255 24.837 C 292.976 24.559,292.749 24.169,292.749 23.970 C 292.749 23.771,292.597 23.609,292.411 23.609 C 292.226 23.609,292.074 23.300,292.074 22.924 C 292.074 22.547,291.847 22.151,291.568 22.044 C 291.290 21.938,291.062 21.573,291.062 21.235 C 291.062 20.896,290.775 20.528,290.423 20.416 C 290.039 20.294,289.702 19.777,289.579 19.118 C 289.466 18.515,289.070 17.804,288.700 17.537 C 288.330 17.270,288.027 16.923,288.027 16.765 C 288.027 16.607,287.799 16.250,287.521 15.972 C 287.243 15.694,287.015 15.173,287.015 14.816 C 287.015 14.458,286.863 14.165,286.678 14.165 C 286.492 14.165,286.341 13.938,286.341 13.659 C 286.341 13.381,286.199 13.153,286.026 13.153 C 285.853 13.153,285.604 12.812,285.472 12.395 C 285.340 11.977,284.951 11.390,284.606 11.090 C 284.262 10.790,283.980 10.373,283.980 10.163 C 283.980 9.953,283.828 9.781,283.642 9.781 C 283.457 9.781,283.305 9.488,283.305 9.130 C 283.305 8.773,283.078 8.252,282.799 7.974 C 282.521 7.696,282.293 7.371,282.293 7.251 C 282.293 5.173,279.692 6.276,278.999 8.648 C 278.514 10.306,276.525 16.715,274.197 24.115 C 273.497 26.341,272.733 28.891,272.501 29.782 C 272.155 31.107,271.856 31.518,270.862 32.040 C 270.193 32.391,268.356 33.600,266.779 34.726 C 265.202 35.852,263.685 36.878,263.406 37.004 C 263.128 37.131,262.749 37.358,262.563 37.510 C 261.846 38.098,251.296 45.381,248.735 47.056 C 245.571 49.127,243.845 50.540,243.845 51.061 C 243.845 51.266,243.427 51.449,242.917 51.468 C 241.812 51.510,235.987 52.122,232.209 52.594 C 227.572 53.173,223.656 53.627,217.201 54.334 C 213.769 54.710,209.747 55.160,208.263 55.335 C 206.779 55.510,204.003 55.805,202.094 55.990 C 198.297 56.359,196.771 56.984,197.302 57.955 C 197.471 58.263,198.003 59.730,198.483 61.214 C 198.963 62.698,199.483 64.216,199.638 64.587 C 200.099 65.690,201.601 69.834,202.326 72.007 C 202.698 73.120,203.553 75.548,204.227 77.403 C 204.900 79.258,205.537 81.079,205.641 81.450 C 205.746 81.821,205.943 82.277,206.081 82.462 C 206.218 82.648,206.443 83.326,206.581 83.969 C 206.718 84.612,206.950 85.371,207.095 85.655 C 207.564 86.574,208.769 89.793,208.769 90.129 C 208.769 90.308,208.982 90.933,209.241 91.517 C 210.197 93.668,210.181 94.188,209.167 93.920 C 208.670 93.788,206.745 93.483,204.890 93.242 C 201.404 92.789,193.457 91.696,187.858 90.900 C 186.096 90.649,181.695 90.041,178.078 89.549 C 174.460 89.056,170.514 88.506,169.309 88.327 C 165.539 87.766,162.429 87.383,161.524 87.367 C 160.548 87.351,160.525 87.387,158.661 91.906 C 157.972 93.575,157.051 95.742,156.613 96.722 C 156.176 97.701,155.818 98.563,155.818 98.637 C 155.818 98.712,155.350 99.808,154.779 101.073 C 153.322 104.296,153.199 104.581,149.924 112.310 C 148.313 116.113,146.759 119.755,146.471 120.405 C 144.982 123.763,144.697 124.412,144.046 125.928 C 143.657 126.833,143.339 127.824,143.339 128.130 C 143.339 128.716,142.168 129.914,141.878 129.624 C 141.726 129.472,132.493 132.525,112.695 139.274 C 103.981 142.245,104.840 141.389,102.693 149.241 C 102.186 151.096,101.492 153.600,101.151 154.806 C 100.597 156.765,98.682 163.892,96.128 173.503 C 95.624 175.397,95.034 176.922,94.771 177.010 C 94.514 177.096,93.948 177.522,93.511 177.959 C 93.075 178.395,92.583 178.752,92.419 178.752 C 92.254 178.752,92.023 179.056,91.906 179.427 C 91.788 179.798,91.404 180.101,91.053 180.101 C 90.702 180.101,90.219 180.333,89.980 180.616 C 88.578 182.274,86.654 184.148,86.353 184.148 C 86.161 184.148,85.093 185.059,83.980 186.172 C 82.867 187.285,81.874 188.196,81.773 188.196 C 81.522 188.196,80.859 188.765,78.921 190.641 C 78.011 191.522,77.177 192.243,77.068 192.243 C 76.844 192.243,76.059 192.864,75.448 193.524 C 73.961 195.129,72.652 196.290,72.329 196.290 C 72.213 196.290,71.221 197.201,70.125 198.314 C 69.029 199.427,67.979 200.337,67.791 200.337 C 67.416 200.337,62.732 204.969,62.732 205.340 C 62.732 205.466,62.239 205.773,61.636 206.023 C 61.033 206.273,59.896 206.765,59.110 207.117 C 58.324 207.469,57.543 207.757,57.375 207.757 C 57.207 207.757,55.574 208.344,53.746 209.061 C 51.917 209.778,47.275 211.599,43.428 213.108 C 39.582 214.617,36.284 215.852,36.099 215.852 C 34.909 215.852,35.460 218.341,37.799 223.533 C 38.156 224.327,38.449 225.132,38.449 225.323 C 38.449 225.513,38.743 226.317,39.104 227.108 C 39.748 228.523,40.328 230.056,41.349 233.052 C 41.634 233.887,42.084 235.048,42.350 235.633 C 42.616 236.217,42.833 236.788,42.833 236.901 C 42.833 237.014,43.126 237.750,43.484 238.537 C 43.843 239.323,44.365 240.649,44.644 241.484 C 44.924 242.319,45.554 243.988,46.043 245.194 C 47.494 248.767,47.877 249.916,47.615 249.916 C 47.411 249.916,44.609 247.968,43.330 246.937 C 43.140 246.783,42.533 246.366,41.981 246.010 C 41.430 245.654,40.675 245.107,40.304 244.794 C 39.933 244.481,38.415 243.380,36.931 242.347 C 32.667 239.380,29.661 237.254,27.656 235.791 C 26.636 235.046,24.573 233.600,23.071 232.578 C 21.570 231.555,20.147 230.485,19.910 230.199 C 18.214 228.155,17.503 230.117,17.878 235.812 C 18.173 240.300,18.371 244.663,19.246 265.936 C 19.430 270.388,19.704 274.827,19.857 275.801 C 20.009 276.775,20.005 277.572,19.848 277.572 C 19.690 277.572,19.562 277.796,19.562 278.070 C 19.562 278.344,16.526 281.599,12.816 285.304 C 9.106 289.009,6.071 292.130,6.071 292.240 C 6.071 292.464,5.451 293.249,4.790 293.861 C 4.549 294.084,4.170 294.463,3.947 294.704 C 3.724 294.945,3.183 295.497,2.745 295.931 C 2.307 296.366,1.776 296.897,1.564 297.113 C 1.353 297.328,0.915 297.758,0.590 298.068 C 0.042 298.593,0.000 299.992,0.000 317.950 L 0.000 337.268 8.144 337.268 L 16.288 337.268 16.066 334.379 L 15.844 331.489 17.122 330.247 C 17.824 329.564,20.807 326.728,23.750 323.946 C 26.692 321.164,29.648 318.352,30.317 317.699 C 32.124 315.936,38.597 309.779,44.670 304.047 C 47.619 301.265,50.473 298.564,51.013 298.045 C 51.949 297.145,51.971 297.063,51.462 296.286 C 50.883 295.403,50.731 293.423,51.242 293.423 C 51.414 293.423,51.662 292.209,51.791 290.725 C 51.920 289.241,52.159 288.027,52.320 288.027 C 52.482 288.027,52.614 287.420,52.614 286.678 C 52.614 285.936,52.766 285.329,52.951 285.329 C 53.137 285.329,53.288 284.798,53.288 284.148 C 53.288 283.499,53.422 282.968,53.586 282.968 C 53.749 282.968,53.991 281.678,54.122 280.101 C 54.253 278.524,54.499 277.234,54.668 277.234 C 54.837 277.234,54.975 276.703,54.975 276.054 C 54.975 275.405,55.109 274.874,55.272 274.874 C 55.436 274.874,55.677 273.583,55.808 272.007 C 55.940 270.430,56.168 269.140,56.315 269.140 C 56.462 269.140,56.661 268.838,56.758 268.469 C 56.854 268.101,57.327 267.649,57.809 267.466 C 59.101 266.975,59.044 266.791,56.155 262.091 C 55.970 261.789,55.450 260.937,55.000 260.198 C 54.550 259.458,53.705 258.094,53.123 257.167 C 50.704 253.314,49.578 251.303,49.578 250.833 C 49.578 250.192,48.657 250.527,68.465 243.962 C 77.833 240.857,85.900 238.043,86.393 237.708 C 86.885 237.373,87.582 237.099,87.940 237.099 C 88.402 237.099,89.553 235.691,91.870 232.293 C 96.704 225.206,101.071 218.901,102.208 217.369 C 102.759 216.627,103.388 215.618,103.605 215.127 C 103.965 214.314,104.225 214.212,106.469 214.002 C 107.827 213.875,108.938 213.632,108.938 213.462 C 108.938 213.292,109.469 213.153,110.118 213.153 C 110.767 213.153,111.298 213.017,111.298 212.850 C 111.298 212.684,112.361 212.441,113.659 212.310 C 114.958 212.180,116.020 211.937,116.020 211.770 C 116.020 211.603,116.551 211.467,117.201 211.467 C 117.850 211.467,118.381 211.315,118.381 211.130 C 118.381 210.944,118.912 210.793,119.562 210.793 C 120.211 210.793,120.742 210.654,120.742 210.484 C 120.742 210.314,121.880 210.069,123.272 209.939 C 124.663 209.808,125.801 209.568,125.801 209.404 C 125.801 209.240,126.332 209.106,126.981 209.106 C 127.631 209.106,128.162 208.954,128.162 208.769 C 128.162 208.583,128.693 208.432,129.342 208.432 C 129.992 208.432,130.523 208.295,130.523 208.129 C 130.523 207.962,131.585 207.719,132.884 207.589 C 134.182 207.458,135.245 207.215,135.245 207.048 C 135.245 206.882,135.624 206.745,136.088 206.745 C 136.551 206.745,136.931 206.594,136.931 206.408 C 136.931 206.223,136.787 206.071,136.610 206.071 C 136.434 206.071,136.187 205.160,136.061 204.047 C 135.935 202.934,135.700 202.024,135.538 202.024 C 135.377 202.024,135.245 201.492,135.245 200.843 C 135.245 200.194,135.093 199.663,134.907 199.663 C 134.722 199.663,134.570 199.132,134.570 198.482 C 134.570 197.833,134.426 197.302,134.249 197.302 C 134.073 197.302,133.826 196.391,133.700 195.278 C 133.574 194.165,133.339 193.255,133.177 193.255 C 133.016 193.255,132.884 192.723,132.884 192.074 C 132.884 191.425,132.751 190.894,132.590 190.894 C 132.428 190.894,132.193 189.983,132.067 188.870 C 131.941 187.757,131.694 186.847,131.518 186.847 C 131.342 186.847,131.197 186.315,131.197 185.666 C 131.197 185.017,131.046 184.486,130.860 184.486 C 130.675 184.486,130.523 184.030,130.523 183.474 C 130.523 182.917,130.371 182.462,130.185 182.462 C 129.588 182.462,129.826 181.443,130.607 180.656 C 131.031 180.230,133.526 179.101,136.256 178.102 C 142.340 175.876,150.540 172.812,152.108 172.180 C 152.757 171.918,154.806 171.155,156.661 170.484 C 161.455 168.751,166.113 167.022,168.465 166.103 C 170.236 165.412,172.253 164.736,173.609 164.381 C 173.841 164.320,174.030 163.883,174.030 163.409 C 174.030 162.698,175.258 160.992,177.066 159.191 C 177.160 159.098,178.601 157.435,180.270 155.496 C 183.718 151.490,185.107 149.896,185.835 149.109 C 186.113 148.808,187.856 146.818,189.709 144.686 C 191.562 142.554,193.158 140.734,193.256 140.641 C 193.354 140.548,194.637 139.068,196.108 137.352 C 197.579 135.637,198.904 134.233,199.054 134.233 C 199.203 134.233,199.325 134.070,199.325 133.871 C 199.325 133.673,199.515 133.312,199.747 133.070 C 199.979 132.829,201.217 131.473,202.498 130.059 C 203.779 128.645,205.022 127.487,205.260 127.487 C 205.497 127.487,207.311 124.186,209.289 120.152 C 223.858 90.445,222.565 92.454,226.219 93.845 C 227.473 94.322,229.410 95.022,230.523 95.400 C 234.506 96.753,236.604 97.499,237.268 97.798 C 237.639 97.964,239.157 98.503,240.641 98.994 C 242.125 99.485,243.642 100.018,244.013 100.177 C 244.384 100.337,246.282 101.016,248.229 101.686 C 250.177 102.357,252.074 103.032,252.445 103.188 C 252.816 103.343,253.803 103.702,254.637 103.986 C 258.648 105.350,263.306 106.981,263.912 107.235 C 265.329 107.828,267.661 108.600,268.035 108.600 C 268.270 108.600,268.517 107.667,268.657 106.239 C 268.785 104.941,269.022 103.879,269.184 103.879 C 269.345 103.879,269.477 103.196,269.477 102.361 C 269.477 101.526,269.629 100.843,269.815 100.843 C 270.000 100.843,270.152 100.236,270.152 99.494 C 270.152 98.752,270.293 98.145,270.466 98.145 C 270.639 98.145,270.886 96.931,271.015 95.447 C 271.145 93.963,271.383 92.749,271.544 92.749 C 271.706 92.749,271.838 92.078,271.838 91.259 C 271.838 90.440,271.986 89.719,272.166 89.657 C 272.347 89.595,272.596 88.444,272.720 87.099 C 272.845 85.755,273.077 84.654,273.236 84.654 C 273.394 84.654,273.524 83.971,273.524 83.137 C 273.524 82.302,273.676 81.619,273.862 81.619 C 274.047 81.619,274.199 81.012,274.199 80.270 C 274.199 79.528,274.340 78.921,274.513 78.921 C 274.686 78.921,274.933 77.707,275.063 76.223 C 275.192 74.739,275.430 73.524,275.592 73.524 C 275.753 73.524,275.885 72.917,275.885 72.175 C 275.885 71.433,276.037 70.826,276.223 70.826 C 276.408 70.826,276.560 70.143,276.560 69.309 C 276.560 68.474,276.701 67.791,276.874 67.791 C 277.047 67.791,277.294 66.577,277.423 65.093 C 277.553 63.609,277.791 62.395,277.952 62.395 C 278.114 62.395,278.246 61.788,278.246 61.046 C 278.246 60.304,278.398 59.696,278.583 59.696 C 278.769 59.696,278.921 59.190,278.921 58.570 C 278.921 57.691,279.109 57.358,279.780 57.052 C 280.892 56.546,301.518 56.494,301.518 56.998 C 301.518 57.506,302.847 57.403,303.397 56.854 C 303.941 56.310,304.061 53.626,303.541 53.626 C 303.356 53.626,303.204 53.170,303.204 52.614 C 303.204 52.057,303.068 51.602,302.901 51.602 C 302.734 51.602,302.491 50.540,302.361 49.241 C 302.230 47.943,301.987 46.880,301.821 46.880 C 301.654 46.880,301.518 46.349,301.518 45.700 C 301.518 45.051,301.366 44.519,301.180 44.519 C 300.995 44.519,300.843 43.836,300.843 43.002 C 300.843 42.167,300.707 41.484,300.540 41.484 C 300.373 41.484,300.130 40.422,300.000 39.123 C 299.870 37.825,299.627 36.762,299.460 36.762 C 299.293 36.762,299.157 36.539,299.157 36.265 C 299.157 35.761,302.770 35.775,307.420 36.297 C 309.400 36.519,314.524 36.870,324.161 37.443 L 331.122 37.857 334.785 36.077 C 336.800 35.097,340.270 33.429,342.496 32.369 C 347.260 30.100,352.153 27.752,360.034 23.952 C 363.187 22.432,366.705 20.740,367.850 20.193 C 370.453 18.951,370.911 19.050,374.685 21.673 C 377.741 23.797,380.694 25.805,381.994 26.644 C 383.212 27.430,390.684 32.503,391.062 32.801 C 391.681 33.289,397.118 36.975,398.569 37.891 L 400.000 38.794 400.000 19.397 L 400.000 0.000 358.938 0.049 L 317.875 0.098 312.832 2.706 " stroke="none" fill="#3c3c3c" fill-rule="evenodd"></path><path id="path4" d="M281.325 1.602 C 281.082 2.483,280.690 3.735,280.454 4.384 C 280.219 5.034,280.101 5.779,280.194 6.040 C 280.313 6.377,280.191 6.450,279.778 6.292 C 279.305 6.110,257.582 12.967,254.806 14.174 C 254.435 14.335,252.841 14.872,251.265 15.368 C 249.688 15.863,248.094 16.392,247.723 16.543 C 247.352 16.694,243.804 17.890,239.838 19.201 C 235.873 20.512,232.133 21.890,231.529 22.263 C 230.457 22.926,230.209 22.933,221.283 22.561 C 210.623 22.118,210.504 22.138,209.605 24.562 C 209.284 25.429,208.797 26.669,208.523 27.319 C 208.250 27.968,207.898 28.803,207.742 29.174 C 207.587 29.545,205.390 35.084,202.861 41.484 C 196.345 57.970,197.282 56.430,194.430 55.350 C 193.505 54.999,191.990 54.443,191.062 54.114 C 190.135 53.785,188.875 53.302,188.263 53.041 C 187.651 52.780,186.209 52.265,185.059 51.896 C 183.909 51.527,182.470 50.998,181.862 50.719 C 181.253 50.440,179.925 49.918,178.911 49.558 C 177.896 49.198,176.236 48.610,175.221 48.250 C 174.206 47.890,172.878 47.372,172.270 47.099 C 171.661 46.825,170.556 46.418,169.815 46.195 C 169.073 45.972,168.010 45.589,167.454 45.345 C 166.897 45.101,165.304 44.497,163.912 44.003 C 162.521 43.510,160.852 42.899,160.202 42.647 C 157.083 41.434,156.632 42.027,158.611 44.735 C 160.005 46.642,165.752 55.194,166.442 56.386 C 166.627 56.707,167.728 58.351,168.887 60.040 C 170.046 61.728,170.995 63.185,170.995 63.278 C 170.995 63.371,171.526 64.143,172.175 64.993 C 173.474 66.694,173.706 67.607,172.766 67.318 C 172.441 67.218,169.064 66.982,165.261 66.793 C 161.459 66.605,153.794 66.064,148.229 65.591 C 136.487 64.594,126.749 64.050,126.402 64.373 C 125.959 64.786,126.539 66.079,127.271 66.310 C 127.668 66.436,128.239 66.820,128.539 67.165 C 128.839 67.509,129.191 67.791,129.322 67.791 C 129.452 67.791,129.787 68.019,130.065 68.297 C 130.343 68.575,130.864 68.803,131.221 68.803 C 131.579 68.803,131.872 68.954,131.872 69.140 C 131.872 69.325,132.099 69.477,132.378 69.477 C 132.656 69.477,132.884 69.619,132.884 69.792 C 132.884 69.965,133.225 70.214,133.642 70.346 C 134.060 70.478,134.647 70.867,134.947 71.212 C 135.247 71.556,135.599 71.838,135.730 71.838 C 135.860 71.838,136.195 72.066,136.473 72.344 C 136.751 72.622,137.262 72.850,137.607 72.850 C 137.952 72.850,138.331 73.153,138.449 73.524 C 138.566 73.895,138.940 74.199,139.278 74.199 C 139.617 74.199,139.981 74.427,140.088 74.705 C 140.195 74.983,140.535 75.211,140.844 75.211 C 141.152 75.211,141.650 75.493,141.950 75.837 C 142.250 76.182,142.837 76.571,143.255 76.703 C 143.672 76.835,144.013 77.084,144.013 77.257 C 144.013 77.430,144.185 77.572,144.396 77.572 C 144.606 77.572,145.023 77.854,145.323 78.198 C 145.623 78.542,146.210 78.932,146.627 79.064 C 147.045 79.196,147.386 79.445,147.386 79.618 C 147.386 79.791,147.679 79.933,148.038 79.933 C 148.396 79.933,148.786 80.236,148.904 80.607 C 149.022 80.980,149.414 81.282,149.780 81.282 C 150.145 81.282,150.530 81.509,150.637 81.788 C 150.744 82.066,151.118 82.293,151.469 82.293 C 151.821 82.293,152.108 82.435,152.108 82.608 C 152.108 82.781,152.449 83.030,152.867 83.162 C 153.284 83.294,153.871 83.684,154.171 84.028 C 154.471 84.372,154.888 84.654,155.099 84.654 C 155.309 84.654,155.481 84.796,155.481 84.969 C 155.481 85.142,155.815 85.390,156.224 85.519 C 157.515 85.929,158.322 87.015,157.336 87.015 C 157.057 87.015,156.830 86.863,156.830 86.678 C 156.830 86.099,127.986 86.228,127.404 86.810 C 127.076 87.138,126.761 87.182,126.357 86.955 C 125.986 86.748,123.126 86.761,118.392 86.992 C 114.329 87.190,110.524 87.352,109.935 87.352 C 109.098 87.352,108.910 87.468,109.070 87.887 C 109.201 88.228,109.123 88.366,108.854 88.269 C 107.535 87.796,107.251 88.591,107.251 92.761 C 107.251 94.980,107.118 96.796,106.955 96.796 C 106.793 96.796,106.548 100.970,106.411 106.071 C 106.275 111.172,106.028 115.346,105.864 115.346 C 105.699 115.346,105.565 117.470,105.565 120.067 C 105.565 122.664,105.431 124.789,105.267 124.789 C 105.104 124.789,104.858 128.735,104.722 133.558 C 104.488 141.831,104.438 142.327,103.839 142.327 C 103.490 142.327,103.204 142.175,103.204 141.990 C 103.204 141.804,102.445 141.653,101.518 141.653 C 100.590 141.653,99.831 141.501,99.831 141.315 C 99.831 141.130,99.148 140.978,98.314 140.978 C 97.479 140.978,96.796 140.841,96.796 140.673 C 96.796 140.506,95.202 140.260,93.255 140.127 C 91.307 139.994,89.713 139.752,89.713 139.589 C 89.713 139.425,89.106 139.292,88.364 139.292 C 87.622 139.292,87.015 139.158,87.015 138.995 C 87.015 138.831,85.422 138.589,83.474 138.456 C 81.526 138.324,79.933 138.078,79.933 137.910 C 79.933 137.743,79.250 137.605,78.415 137.605 C 77.580 137.605,76.897 137.454,76.897 137.268 C 76.897 137.083,76.138 136.931,75.211 136.931 C 74.283 136.931,73.524 136.793,73.524 136.625 C 73.524 136.457,72.083 136.211,70.320 136.079 C 68.558 135.947,67.116 135.705,67.116 135.542 C 67.116 135.378,66.358 135.245,65.430 135.245 C 64.503 135.245,63.744 135.107,63.744 134.939 C 63.744 134.771,62.302 134.525,60.540 134.393 C 58.777 134.261,57.336 134.019,57.336 133.855 C 57.336 133.692,56.501 133.558,55.481 133.558 C 54.460 133.558,53.626 133.406,53.626 133.221 C 53.626 132.816,52.949 132.788,52.351 133.168 C 52.007 133.386,51.990 134.231,52.267 137.294 C 52.459 139.413,52.783 144.182,52.987 147.892 C 53.394 155.279,53.743 161.216,54.139 167.470 C 54.352 170.834,54.306 171.733,53.868 172.697 C 53.578 173.338,52.852 175.000,52.256 176.391 C 51.660 177.782,50.814 179.708,50.375 180.670 C 49.937 181.632,49.578 182.500,49.578 182.599 C 49.578 182.698,49.214 183.581,48.770 184.560 C 48.325 185.539,47.550 187.327,47.049 188.533 C 46.547 189.739,45.757 191.560,45.292 192.580 C 44.827 193.600,44.176 195.118,43.845 195.953 C 43.514 196.788,42.862 198.305,42.398 199.325 C 41.933 200.346,41.143 202.167,40.642 203.373 C 40.142 204.578,39.292 206.524,38.753 207.696 C 38.215 208.869,37.774 209.964,37.774 210.131 C 37.774 210.298,37.500 210.933,37.166 211.541 C 36.831 212.150,36.297 213.343,35.979 214.194 C 35.392 215.761,34.006 216.957,20.790 227.292 C 19.704 228.141,18.338 229.265,17.755 229.788 C 17.172 230.312,13.151 233.423,8.819 236.702 C 4.487 239.981,0.730 242.834,0.470 243.040 C 0.069 243.359,0.009 247.649,0.082 271.025 C 0.159 295.615,0.224 298.569,0.675 298.036 C 0.953 297.707,1.377 297.256,1.618 297.033 C 2.181 296.512,3.426 295.267,3.947 294.704 C 4.170 294.463,4.549 294.084,4.790 293.861 C 5.451 293.249,6.071 292.464,6.071 292.240 C 6.071 292.130,9.106 289.009,12.816 285.304 C 16.526 281.599,19.562 278.344,19.562 278.070 C 19.562 277.796,19.690 277.572,19.848 277.572 C 20.005 277.572,20.009 276.775,19.857 275.801 C 19.704 274.827,19.430 270.388,19.246 265.936 C 18.371 244.663,18.173 240.300,17.878 235.812 C 17.503 230.117,18.214 228.155,19.910 230.199 C 20.147 230.485,21.570 231.555,23.071 232.578 C 24.573 233.600,26.636 235.046,27.656 235.791 C 29.661 237.254,32.667 239.380,36.931 242.347 C 38.415 243.380,39.933 244.481,40.304 244.794 C 40.675 245.107,41.430 245.654,41.981 246.010 C 42.533 246.366,43.140 246.783,43.330 246.937 C 44.609 247.968,47.411 249.916,47.615 249.916 C 47.877 249.916,47.494 248.767,46.043 245.194 C 45.554 243.988,44.924 242.319,44.644 241.484 C 44.365 240.649,43.843 239.323,43.484 238.537 C 43.126 237.750,42.833 237.014,42.833 236.901 C 42.833 236.788,42.616 236.217,42.350 235.633 C 42.084 235.048,41.634 233.887,41.349 233.052 C 40.328 230.056,39.748 228.523,39.104 227.108 C 38.743 226.317,38.449 225.513,38.449 225.323 C 38.449 225.132,38.156 224.327,37.799 223.533 C 35.460 218.341,34.909 215.852,36.099 215.852 C 36.284 215.852,39.582 214.617,43.428 213.108 C 47.275 211.599,51.917 209.778,53.746 209.061 C 55.574 208.344,57.207 207.757,57.375 207.757 C 57.543 207.757,58.324 207.469,59.110 207.117 C 59.896 206.765,61.033 206.273,61.636 206.023 C 62.239 205.773,62.732 205.466,62.732 205.340 C 62.732 204.969,67.416 200.337,67.791 200.337 C 67.979 200.337,69.029 199.427,70.125 198.314 C 71.221 197.201,72.213 196.290,72.329 196.290 C 72.652 196.290,73.961 195.129,75.448 193.524 C 76.059 192.864,76.844 192.243,77.068 192.243 C 77.177 192.243,78.011 191.522,78.921 190.641 C 80.859 188.765,81.522 188.196,81.773 188.196 C 81.874 188.196,82.867 187.285,83.980 186.172 C 85.093 185.059,86.161 184.148,86.353 184.148 C 86.654 184.148,88.578 182.274,89.980 180.616 C 90.219 180.333,90.702 180.101,91.053 180.101 C 91.404 180.101,91.788 179.798,91.906 179.427 C 92.023 179.056,92.254 178.752,92.419 178.752 C 92.583 178.752,93.075 178.395,93.511 177.959 C 93.948 177.522,94.514 177.096,94.771 177.010 C 95.034 176.922,95.624 175.397,96.128 173.503 C 98.682 163.892,100.597 156.765,101.151 154.806 C 101.492 153.600,102.186 151.096,102.693 149.241 C 104.840 141.389,103.981 142.245,112.695 139.274 C 132.493 132.525,141.726 129.472,141.878 129.624 C 142.168 129.914,143.339 128.716,143.339 128.130 C 143.339 127.824,143.657 126.833,144.046 125.928 C 144.697 124.412,144.982 123.763,146.471 120.405 C 146.759 119.755,148.313 116.113,149.924 112.310 C 153.199 104.581,153.322 104.296,154.779 101.073 C 155.350 99.808,155.818 98.712,155.818 98.637 C 155.818 98.563,156.176 97.701,156.613 96.722 C 157.051 95.742,157.972 93.575,158.661 91.906 C 160.525 87.387,160.548 87.351,161.524 87.367 C 162.429 87.383,165.539 87.766,169.309 88.327 C 170.514 88.506,174.460 89.056,178.078 89.549 C 181.695 90.041,186.096 90.649,187.858 90.900 C 193.457 91.696,201.404 92.789,204.890 93.242 C 206.745 93.483,208.670 93.788,209.167 93.920 C 210.181 94.188,210.197 93.668,209.241 91.517 C 208.982 90.933,208.769 90.308,208.769 90.129 C 208.769 89.793,207.564 86.574,207.095 85.655 C 206.950 85.371,206.718 84.612,206.581 83.969 C 206.443 83.326,206.218 82.648,206.081 82.462 C 205.943 82.277,205.746 81.821,205.641 81.450 C 205.537 81.079,204.900 79.258,204.227 77.403 C 203.553 75.548,202.698 73.120,202.326 72.007 C 201.601 69.834,200.099 65.690,199.638 64.587 C 199.483 64.216,198.963 62.698,198.483 61.214 C 198.003 59.730,197.471 58.263,197.302 57.955 C 196.771 56.984,198.297 56.359,202.094 55.990 C 204.003 55.805,206.779 55.510,208.263 55.335 C 209.747 55.160,213.769 54.710,217.201 54.334 C 223.656 53.627,227.572 53.173,232.209 52.594 C 235.987 52.122,241.812 51.510,242.917 51.468 C 243.427 51.449,243.845 51.266,243.845 51.061 C 243.845 50.540,245.571 49.127,248.735 47.056 C 251.296 45.381,261.846 38.098,262.563 37.510 C 262.749 37.358,263.128 37.131,263.406 37.004 C 263.685 36.878,265.202 35.852,266.779 34.726 C 268.356 33.600,270.193 32.391,270.862 32.040 C 271.856 31.518,272.155 31.107,272.501 29.782 C 272.733 28.891,273.497 26.341,274.197 24.115 C 276.525 16.715,278.514 10.306,278.999 8.648 C 279.692 6.276,282.293 5.173,282.293 7.251 C 282.293 7.371,282.521 7.696,282.799 7.974 C 283.078 8.252,283.305 8.773,283.305 9.130 C 283.305 9.488,283.457 9.781,283.642 9.781 C 283.828 9.781,283.980 9.953,283.980 10.163 C 283.980 10.373,284.262 10.790,284.606 11.090 C 284.951 11.390,285.340 11.977,285.472 12.395 C 285.604 12.812,285.853 13.153,286.026 13.153 C 286.199 13.153,286.341 13.381,286.341 13.659 C 286.341 13.938,286.492 14.165,286.678 14.165 C 286.863 14.165,287.015 14.458,287.015 14.816 C 287.015 15.173,287.243 15.694,287.521 15.972 C 287.799 16.250,288.027 16.607,288.027 16.765 C 288.027 16.923,288.330 17.270,288.700 17.537 C 289.070 17.804,289.466 18.515,289.579 19.118 C 289.702 19.777,290.039 20.294,290.423 20.416 C 290.775 20.528,291.062 20.896,291.062 21.235 C 291.062 21.573,291.290 21.938,291.568 22.044 C 291.847 22.151,292.074 22.547,292.074 22.924 C 292.074 23.300,292.226 23.609,292.411 23.609 C 292.597 23.609,292.749 23.771,292.749 23.970 C 292.749 24.169,292.976 24.559,293.255 24.837 C 293.533 25.116,293.761 25.626,293.761 25.971 C 293.761 26.316,294.064 26.695,294.435 26.813 C 294.806 26.931,295.110 27.320,295.110 27.679 C 295.110 28.037,295.245 28.331,295.410 28.331 C 295.576 28.331,295.806 28.710,295.923 29.174 C 296.039 29.637,296.283 30.017,296.465 30.017 C 296.647 30.017,296.796 30.179,296.796 30.378 C 296.796 30.577,297.024 30.967,297.302 31.245 C 297.580 31.524,297.808 32.044,297.808 32.402 C 297.808 32.760,297.960 33.052,298.145 33.052 C 298.331 33.052,298.482 32.597,298.482 32.040 C 298.482 31.484,298.634 31.029,298.820 31.029 C 299.005 31.029,299.157 30.497,299.157 29.848 C 299.157 29.199,299.297 28.668,299.467 28.668 C 299.638 28.668,299.883 27.681,300.012 26.476 C 300.142 25.270,300.381 24.283,300.545 24.283 C 300.709 24.283,300.843 23.752,300.843 23.103 C 300.843 22.454,300.995 21.922,301.180 21.922 C 301.366 21.922,301.518 21.391,301.518 20.742 C 301.518 20.093,301.650 19.562,301.811 19.562 C 301.973 19.562,302.208 18.651,302.334 17.538 C 302.460 16.425,302.707 15.514,302.884 15.514 C 303.060 15.514,303.204 14.983,303.204 14.334 C 303.204 13.685,303.356 13.153,303.541 13.153 C 303.727 13.153,303.879 12.622,303.879 11.973 C 303.879 11.324,304.011 10.793,304.172 10.793 C 304.334 10.793,304.569 9.882,304.695 8.769 C 304.888 7.066,305.028 6.745,305.582 6.745 C 305.943 6.745,306.541 6.444,306.910 6.075 C 307.278 5.706,309.859 4.264,312.643 2.869 C 315.428 1.474,317.707 0.258,317.707 0.167 C 317.707 0.075,309.620 0.000,299.736 0.000 L 281.766 0.000 281.325 1.602 " stroke="none" fill="#444444" fill-rule="evenodd"></path><path id="path5" d="M368.634 19.759 C 367.800 20.250,356.780 25.566,342.496 32.369 C 340.270 33.429,336.800 35.097,334.785 36.077 L 331.122 37.857 324.161 37.443 C 314.524 36.870,309.400 36.519,307.420 36.297 C 302.770 35.775,299.157 35.761,299.157 36.265 C 299.157 36.539,299.293 36.762,299.460 36.762 C 299.627 36.762,299.870 37.825,300.000 39.123 C 300.130 40.422,300.373 41.484,300.540 41.484 C 300.707 41.484,300.843 42.167,300.843 43.002 C 300.843 43.836,300.995 44.519,301.180 44.519 C 301.366 44.519,301.518 45.051,301.518 45.700 C 301.518 46.349,301.654 46.880,301.821 46.880 C 301.987 46.880,302.230 47.943,302.361 49.241 C 302.491 50.540,302.734 51.602,302.901 51.602 C 303.068 51.602,303.204 52.057,303.204 52.614 C 303.204 53.170,303.356 53.626,303.541 53.626 C 304.061 53.626,303.941 56.310,303.397 56.854 C 302.847 57.403,301.518 57.506,301.518 56.998 C 301.518 56.494,280.892 56.546,279.780 57.052 C 279.109 57.358,278.921 57.691,278.921 58.570 C 278.921 59.190,278.769 59.696,278.583 59.696 C 278.398 59.696,278.246 60.304,278.246 61.046 C 278.246 61.788,278.114 62.395,277.952 62.395 C 277.791 62.395,277.553 63.609,277.423 65.093 C 277.294 66.577,277.047 67.791,276.874 67.791 C 276.701 67.791,276.560 68.474,276.560 69.309 C 276.560 70.143,276.408 70.826,276.223 70.826 C 276.037 70.826,275.885 71.433,275.885 72.175 C 275.885 72.917,275.753 73.524,275.592 73.524 C 275.430 73.524,275.192 74.739,275.063 76.223 C 274.933 77.707,274.686 78.921,274.513 78.921 C 274.340 78.921,274.199 79.528,274.199 80.270 C 274.199 81.012,274.047 81.619,273.862 81.619 C 273.676 81.619,273.524 82.302,273.524 83.137 C 273.524 83.971,273.394 84.654,273.236 84.654 C 273.077 84.654,272.845 85.755,272.720 87.099 C 272.596 88.444,272.347 89.595,272.166 89.657 C 271.986 89.719,271.838 90.440,271.838 91.259 C 271.838 92.078,271.706 92.749,271.544 92.749 C 271.383 92.749,271.145 93.963,271.015 95.447 C 270.886 96.931,270.639 98.145,270.466 98.145 C 270.293 98.145,270.152 98.752,270.152 99.494 C 270.152 100.236,270.000 100.843,269.815 100.843 C 269.629 100.843,269.477 101.526,269.477 102.361 C 269.477 103.196,269.345 103.879,269.184 103.879 C 269.022 103.879,268.785 104.941,268.657 106.239 C 268.517 107.667,268.270 108.600,268.035 108.600 C 267.661 108.600,265.329 107.828,263.912 107.235 C 263.306 106.981,258.648 105.350,254.637 103.986 C 253.803 103.702,252.816 103.343,252.445 103.188 C 252.074 103.032,250.177 102.357,248.229 101.686 C 246.282 101.016,244.384 100.337,244.013 100.177 C 243.642 100.018,242.125 99.485,240.641 98.994 C 239.157 98.503,237.639 97.964,237.268 97.798 C 236.604 97.499,234.506 96.753,230.523 95.400 C 229.410 95.022,227.473 94.322,226.219 93.845 C 222.565 92.454,223.858 90.445,209.289 120.152 C 207.311 124.186,205.497 127.487,205.260 127.487 C 205.022 127.487,203.779 128.645,202.498 130.059 C 201.217 131.473,199.979 132.829,199.747 133.070 C 199.515 133.312,199.325 133.673,199.325 133.871 C 199.325 134.070,199.203 134.233,199.054 134.233 C 198.904 134.233,197.579 135.637,196.108 137.352 C 194.637 139.068,193.354 140.548,193.256 140.641 C 193.158 140.734,191.562 142.554,189.709 144.686 C 187.856 146.818,186.113 148.808,185.835 149.109 C 185.107 149.896,183.718 151.490,180.270 155.496 C 178.601 157.435,177.160 159.098,177.066 159.191 C 175.258 160.992,174.030 162.698,174.030 163.409 C 174.030 163.883,173.841 164.320,173.609 164.381 C 172.253 164.736,170.236 165.412,168.465 166.103 C 166.113 167.022,161.455 168.751,156.661 170.484 C 154.806 171.155,152.757 171.918,152.108 172.180 C 150.540 172.812,142.340 175.876,136.256 178.102 C 133.526 179.101,131.031 180.230,130.607 180.656 C 129.826 181.443,129.588 182.462,130.185 182.462 C 130.371 182.462,130.523 182.917,130.523 183.474 C 130.523 184.030,130.675 184.486,130.860 184.486 C 131.046 184.486,131.197 185.017,131.197 185.666 C 131.197 186.315,131.342 186.847,131.518 186.847 C 131.694 186.847,131.941 187.757,132.067 188.870 C 132.193 189.983,132.428 190.894,132.590 190.894 C 132.751 190.894,132.884 191.425,132.884 192.074 C 132.884 192.723,133.016 193.255,133.177 193.255 C 133.339 193.255,133.574 194.165,133.700 195.278 C 133.826 196.391,134.073 197.302,134.249 197.302 C 134.426 197.302,134.570 197.833,134.570 198.482 C 134.570 199.132,134.722 199.663,134.907 199.663 C 135.093 199.663,135.245 200.194,135.245 200.843 C 135.245 201.492,135.377 202.024,135.538 202.024 C 135.700 202.024,135.935 202.934,136.061 204.047 C 136.187 205.160,136.434 206.071,136.610 206.071 C 136.787 206.071,136.931 206.223,136.931 206.408 C 136.931 206.594,136.551 206.745,136.088 206.745 C 135.624 206.745,135.245 206.882,135.245 207.048 C 135.245 207.215,134.182 207.458,132.884 207.589 C 131.585 207.719,130.523 207.962,130.523 208.129 C 130.523 208.295,129.992 208.432,129.342 208.432 C 128.693 208.432,128.162 208.583,128.162 208.769 C 128.162 208.954,127.631 209.106,126.981 209.106 C 126.332 209.106,125.801 209.240,125.801 209.404 C 125.801 209.568,124.663 209.808,123.272 209.939 C 121.880 210.069,120.742 210.314,120.742 210.484 C 120.742 210.654,120.211 210.793,119.562 210.793 C 118.912 210.793,118.381 210.944,118.381 211.130 C 118.381 211.315,117.850 211.467,117.201 211.467 C 116.551 211.467,116.020 211.603,116.020 211.770 C 116.020 211.937,114.958 212.180,113.659 212.310 C 112.361 212.441,111.298 212.684,111.298 212.850 C 111.298 213.017,110.767 213.153,110.118 213.153 C 109.469 213.153,108.938 213.292,108.938 213.462 C 108.938 213.632,107.827 213.875,106.469 214.002 C 104.225 214.212,103.965 214.314,103.605 215.127 C 103.388 215.618,102.759 216.627,102.208 217.369 C 101.071 218.901,96.704 225.206,91.870 232.293 C 89.553 235.691,88.402 237.099,87.940 237.099 C 87.582 237.099,86.885 237.373,86.393 237.708 C 85.900 238.043,77.833 240.857,68.465 243.962 C 48.657 250.527,49.578 250.192,49.578 250.833 C 49.578 251.303,50.704 253.314,53.123 257.167 C 53.705 258.094,54.550 259.458,55.000 260.198 C 55.450 260.937,55.970 261.789,56.155 262.091 C 59.044 266.791,59.101 266.975,57.809 267.466 C 57.327 267.649,56.854 268.101,56.758 268.469 C 56.661 268.838,56.462 269.140,56.315 269.140 C 56.168 269.140,55.940 270.430,55.808 272.007 C 55.677 273.583,55.436 274.874,55.272 274.874 C 55.109 274.874,54.975 275.405,54.975 276.054 C 54.975 276.703,54.837 277.234,54.668 277.234 C 54.499 277.234,54.253 278.524,54.122 280.101 C 53.991 281.678,53.749 282.968,53.586 282.968 C 53.422 282.968,53.288 283.499,53.288 284.148 C 53.288 284.798,53.137 285.329,52.951 285.329 C 52.766 285.329,52.614 285.936,52.614 286.678 C 52.614 287.420,52.482 288.027,52.320 288.027 C 52.159 288.027,51.920 289.241,51.791 290.725 C 51.662 292.209,51.414 293.423,51.242 293.423 C 50.731 293.423,50.883 295.403,51.462 296.286 C 51.971 297.063,51.949 297.145,51.013 298.045 C 50.473 298.564,47.619 301.265,44.670 304.047 C 38.597 309.779,32.124 315.936,30.317 317.699 C 29.648 318.352,26.692 321.164,23.750 323.946 C 14.904 332.309,15.732 331.332,15.977 333.116 C 16.093 333.967,16.189 335.250,16.189 335.966 L 16.189 337.268 43.676 337.268 C 69.802 337.268,71.164 337.238,71.164 336.668 C 71.164 336.338,71.467 335.849,71.838 335.582 C 72.209 335.314,72.513 334.906,72.513 334.674 C 72.513 334.213,76.423 330.185,76.872 330.185 C 77.025 330.185,77.239 329.742,77.347 329.201 C 77.464 328.616,77.824 328.127,78.232 327.998 C 78.611 327.877,78.921 327.645,78.921 327.480 C 78.921 327.091,80.548 325.464,80.937 325.464 C 81.102 325.464,81.340 325.135,81.468 324.733 C 81.667 324.106,82.198 323.413,83.521 322.055 C 83.680 321.891,84.532 321.079,85.413 320.250 C 86.294 319.421,87.015 318.585,87.015 318.391 C 87.015 318.198,88.062 316.994,89.342 315.717 C 90.621 314.440,91.770 313.075,91.894 312.684 C 92.018 312.293,92.261 311.973,92.434 311.973 C 92.607 311.973,92.749 311.745,92.749 311.467 C 92.749 311.186,93.049 310.961,93.423 310.961 C 93.794 310.961,94.108 310.772,94.121 310.540 C 94.298 307.348,93.979 290.529,93.740 290.444 C 93.320 290.295,93.316 274.199,93.736 274.199 C 94.119 274.199,94.436 273.883,96.796 271.152 C 97.816 269.972,100.017 267.470,101.686 265.593 C 104.218 262.747,108.553 257.812,111.191 254.775 C 111.800 254.074,113.401 252.263,119.224 245.688 C 120.894 243.803,123.360 241.016,124.705 239.495 C 126.050 237.973,127.150 236.508,127.150 236.239 C 127.150 235.913,127.515 235.749,128.246 235.747 C 128.849 235.745,131.847 235.360,134.907 234.892 C 137.968 234.423,142.445 233.759,144.857 233.416 C 147.268 233.073,150.379 232.612,151.771 232.391 C 153.162 232.170,155.894 231.735,157.841 231.424 L 161.383 230.860 161.615 228.836 C 161.743 227.723,162.023 223.550,162.237 219.562 C 162.583 213.141,162.694 211.570,162.857 210.744 C 162.938 210.337,164.079 210.034,166.105 209.882 C 167.218 209.798,168.179 209.590,168.241 209.418 C 168.302 209.247,169.023 209.106,169.843 209.106 C 170.662 209.106,171.332 208.954,171.332 208.769 C 171.332 208.583,171.939 208.432,172.681 208.432 C 173.423 208.432,174.030 208.296,174.030 208.130 C 174.030 207.964,175.396 207.721,177.066 207.589 C 178.735 207.456,180.101 207.213,180.101 207.047 C 180.101 206.881,180.708 206.745,181.450 206.745 C 182.192 206.745,182.799 206.613,182.799 206.452 C 182.799 206.290,184.013 206.052,185.497 205.923 C 186.981 205.793,188.196 205.546,188.196 205.373 C 188.196 205.200,188.803 205.059,189.545 205.059 C 190.287 205.059,190.894 204.907,190.894 204.722 C 190.894 204.536,191.577 204.384,192.411 204.384 C 193.246 204.384,193.929 204.251,193.929 204.087 C 193.929 203.924,195.219 203.682,196.796 203.551 C 198.373 203.420,199.663 203.174,199.663 203.005 C 199.663 202.836,200.346 202.698,201.180 202.698 C 202.015 202.698,202.698 202.566,202.698 202.404 C 202.698 202.243,203.798 201.996,205.143 201.857 C 206.488 201.717,207.399 201.533,207.167 201.448 C 206.935 201.363,206.745 201.156,206.745 200.988 C 206.745 200.821,205.987 199.921,205.059 198.988 C 204.132 198.056,203.373 197.137,203.373 196.945 C 203.373 196.754,202.538 195.783,201.518 194.787 C 200.497 193.791,199.663 192.818,199.663 192.625 C 199.663 192.314,199.337 191.955,197.571 190.320 C 196.911 189.708,196.290 188.923,196.290 188.700 C 196.290 188.590,195.531 187.742,194.604 186.814 C 193.676 185.887,192.917 184.969,192.917 184.774 C 192.917 184.579,192.462 183.994,191.906 183.474 C 190.723 182.369,190.544 181.113,191.568 181.113 C 191.939 181.113,192.243 180.979,192.243 180.815 C 192.243 180.651,195.126 180.405,198.651 180.270 C 202.175 180.134,205.059 179.889,205.059 179.725 C 205.059 179.561,206.501 179.427,208.263 179.427 C 210.025 179.427,211.467 179.292,211.467 179.128 C 211.467 178.964,214.351 178.719,217.875 178.583 C 221.400 178.448,224.283 178.203,224.283 178.039 C 224.283 177.875,225.725 177.740,227.487 177.740 C 229.399 177.740,230.691 177.604,230.691 177.403 C 230.691 177.216,231.591 177.066,232.715 177.066 C 235.012 177.066,234.850 177.362,234.744 173.356 C 234.708 171.965,234.540 170.776,234.371 170.714 C 234.202 170.652,234.064 169.552,234.064 168.269 C 234.064 166.986,233.931 165.936,233.768 165.936 C 233.605 165.936,233.361 163.735,233.227 161.046 C 233.092 158.356,232.846 156.155,232.680 156.155 C 232.514 156.155,232.378 155.093,232.378 153.794 C 232.378 152.445,232.233 151.433,232.040 151.433 C 231.848 151.433,231.703 150.422,231.703 149.073 C 231.703 147.723,231.559 146.712,231.366 146.712 C 230.881 146.712,230.970 145.299,231.498 144.604 C 231.982 143.966,237.437 143.696,237.437 144.310 C 237.437 144.474,242.445 144.720,248.567 144.857 C 254.688 144.994,259.696 145.240,259.696 145.403 C 259.696 145.566,260.607 145.700,261.720 145.700 L 263.744 145.700 263.744 144.013 C 263.744 143.086,263.878 142.327,264.043 142.327 C 264.208 142.327,264.452 140.202,264.587 137.605 C 264.721 135.008,264.966 132.884,265.131 132.884 C 265.295 132.884,265.430 131.821,265.430 130.523 C 265.430 129.224,265.563 128.162,265.727 128.162 C 265.890 128.162,266.133 126.113,266.267 123.609 C 266.401 121.105,266.647 119.056,266.814 119.056 C 266.980 119.056,267.116 117.993,267.116 116.695 C 267.116 115.346,267.261 114.334,267.454 114.334 C 267.640 114.334,267.791 113.446,267.791 112.344 C 267.791 110.371,267.802 110.349,269.115 109.665 C 269.844 109.285,270.716 108.827,271.055 108.647 C 271.393 108.467,272.201 108.091,272.850 107.810 C 276.139 106.391,283.000 103.389,284.486 102.719 C 285.413 102.301,287.234 101.494,288.533 100.926 C 289.831 100.357,291.728 99.519,292.749 99.063 C 293.769 98.606,296.273 97.513,298.314 96.632 C 300.354 95.752,302.983 94.594,304.155 94.059 C 305.327 93.524,306.368 93.086,306.467 93.086 C 306.567 93.086,306.940 92.715,307.296 92.262 C 307.893 91.503,308.830 90.904,312.985 88.625 C 313.820 88.167,316.145 86.859,318.153 85.718 C 320.161 84.576,321.872 83.642,321.954 83.642 C 322.037 83.642,322.671 83.289,323.363 82.856 C 324.054 82.423,325.531 81.569,326.644 80.957 C 327.757 80.346,330.185 79.002,332.040 77.972 C 333.895 76.942,336.172 75.680,337.099 75.168 C 338.027 74.657,339.241 73.982,339.798 73.669 C 342.051 72.400,343.375 71.821,343.642 71.986 C 343.797 72.081,344.195 71.860,344.527 71.493 C 345.068 70.895,345.575 70.826,349.462 70.826 C 352.125 70.826,353.794 70.696,353.794 70.489 C 353.794 70.283,355.368 70.152,357.841 70.152 C 360.315 70.152,361.889 70.021,361.889 69.815 C 361.889 69.268,366.023 69.407,366.842 69.981 C 367.747 70.615,369.551 70.306,369.816 69.472 C 369.928 69.119,370.486 68.784,371.175 68.654 C 371.818 68.534,372.344 68.290,372.344 68.113 C 372.344 67.936,372.648 67.791,373.019 67.791 C 373.390 67.791,373.693 67.659,373.693 67.497 C 373.693 67.335,374.300 67.105,375.042 66.987 C 375.784 66.868,376.391 66.621,376.391 66.438 C 376.391 66.255,376.695 66.105,377.066 66.105 C 377.437 66.105,377.740 65.953,377.740 65.767 C 377.740 65.582,377.968 65.430,378.246 65.430 C 378.524 65.430,378.752 65.295,378.752 65.131 C 378.752 64.967,379.435 64.730,380.270 64.604 C 381.105 64.479,381.788 64.234,381.788 64.060 C 381.788 63.886,382.015 63.744,382.293 63.744 C 382.572 63.744,382.799 63.592,382.799 63.406 C 382.799 63.221,383.179 63.069,383.642 63.069 C 384.106 63.069,384.486 62.934,384.486 62.769 C 384.486 62.605,385.017 62.370,385.666 62.248 C 386.315 62.126,386.847 61.882,386.847 61.705 C 386.847 61.528,387.150 61.383,387.521 61.383 C 387.892 61.383,388.196 61.250,388.196 61.089 C 388.196 60.927,388.803 60.697,389.545 60.579 C 390.287 60.460,390.894 60.213,390.894 60.030 C 390.894 59.846,391.197 59.696,391.568 59.696 C 391.939 59.696,392.243 59.545,392.243 59.359 C 392.243 59.174,392.470 59.022,392.749 59.022 C 393.027 59.022,393.255 58.887,393.255 58.723 C 393.255 58.559,393.938 58.322,394.772 58.196 C 395.607 58.071,396.290 57.826,396.290 57.652 C 396.290 57.478,396.518 57.336,396.796 57.336 C 397.074 57.336,397.302 57.184,397.302 56.998 C 397.302 56.813,397.692 56.661,398.169 56.661 C 399.949 56.661,400.000 56.397,400.000 47.282 L 400.000 38.866 395.531 35.875 C 393.073 34.230,390.987 32.803,390.894 32.704 C 390.736 32.535,383.709 27.751,381.994 26.644 C 380.691 25.804,377.740 23.796,374.634 21.638 C 371.465 19.436,369.976 18.970,368.634 19.759 M186.918 186.617 C 186.516 186.796,186.102 187.211,185.998 187.538 C 185.894 187.865,185.595 188.215,185.333 188.316 C 185.019 188.436,184.921 188.332,185.045 188.010 C 185.148 187.741,185.368 187.521,185.534 187.521 C 185.699 187.521,185.835 187.348,185.835 187.137 C 185.835 186.614,186.931 185.847,187.328 186.093 C 187.504 186.202,187.320 186.437,186.918 186.617 M184.481 188.786 C 184.471 189.247,183.851 190.034,183.653 189.836 C 183.387 189.570,183.810 188.533,184.184 188.533 C 184.350 188.533,184.483 188.647,184.481 188.786 M182.125 191.371 C 182.125 191.448,181.594 192.057,180.944 192.726 C 179.546 194.166,179.361 193.869,180.691 192.319 C 181.511 191.364,182.125 190.958,182.125 191.371 M177.945 196.149 C 177.832 196.442,177.740 196.746,177.740 196.824 C 177.740 196.901,177.508 196.965,177.224 196.965 C 176.940 196.965,176.620 197.191,176.514 197.469 C 176.408 197.746,176.182 197.887,176.012 197.782 C 175.843 197.677,176.124 197.147,176.637 196.604 C 177.657 195.523,178.267 195.311,177.945 196.149 M175.379 198.965 C 175.379 199.138,175.066 199.379,174.683 199.501 C 174.300 199.623,173.854 200.050,173.693 200.451 C 173.501 200.925,173.391 200.996,173.377 200.654 C 173.365 200.364,173.665 199.795,174.043 199.389 C 174.759 198.621,175.379 198.424,175.379 198.965 M167.046 207.698 C 165.972 208.778,164.984 209.607,164.851 209.540 C 164.504 209.364,168.042 205.739,168.563 205.736 C 168.803 205.735,168.120 206.618,167.046 207.698 " stroke="none" fill="#343434" fill-rule="evenodd"></path><path id="path6" d="M72.681 13.744 C 72.203 40.015,72.357 38.912,69.363 37.463 C 68.567 37.078,67.748 36.762,67.543 36.762 C 67.338 36.762,66.741 36.541,66.216 36.270 C 65.185 35.739,61.470 34.164,59.022 33.220 C 58.187 32.898,56.745 32.290,55.818 31.868 C 54.890 31.446,53.297 30.764,52.277 30.353 C 49.480 29.224,46.971 28.174,44.351 27.036 C 43.052 26.472,41.212 25.708,40.261 25.337 C 39.311 24.967,37.869 24.371,37.057 24.014 C 36.246 23.656,34.899 23.097,34.064 22.771 C 32.159 22.028,31.796 21.873,28.541 20.414 C 27.081 19.760,25.757 19.224,25.599 19.224 C 25.442 19.224,24.513 18.861,23.534 18.417 C 19.621 16.641,19.757 15.465,22.311 29.005 C 22.503 30.025,22.866 32.074,23.117 33.558 C 23.367 35.042,23.741 37.015,23.946 37.943 C 24.151 38.870,24.443 40.388,24.594 41.315 C 24.745 42.243,25.054 44.140,25.281 45.531 C 25.508 46.922,25.820 48.592,25.975 49.241 C 26.130 49.890,26.410 51.256,26.598 52.277 C 26.785 53.297,27.184 55.386,27.483 56.918 C 27.783 58.451,27.913 59.893,27.773 60.122 C 27.418 60.703,26.891 61.342,26.375 61.821 C 26.134 62.044,25.561 62.605,25.101 63.069 C 24.057 64.122,23.776 64.403,22.841 65.329 C 22.428 65.738,21.909 66.269,21.686 66.510 C 21.463 66.751,21.083 67.133,20.842 67.360 C 20.602 67.587,20.232 67.945,20.021 68.156 C 19.809 68.368,19.278 68.896,18.840 69.330 C 18.402 69.764,17.861 70.316,17.638 70.557 C 17.415 70.798,17.036 71.180,16.795 71.407 C 16.554 71.634,16.206 71.971,16.020 72.157 C 15.835 72.342,15.304 72.871,14.840 73.330 C 14.376 73.790,13.814 74.364,13.591 74.604 C 12.980 75.265,12.195 75.885,11.971 75.885 C 11.812 75.885,9.837 77.699,8.066 79.473 C 7.691 79.849,6.201 81.338,5.705 81.834 C 5.494 82.045,4.562 82.977,3.634 83.904 C 2.707 84.832,1.810 85.721,1.640 85.881 C -0.116 87.538,-0.000 85.752,-0.000 111.234 C 0.000 134.653,0.001 134.674,0.675 134.064 C 1.046 133.728,1.349 133.194,1.349 132.876 C 1.349 132.558,1.994 131.303,2.782 130.086 C 6.399 124.503,7.083 123.391,7.083 123.089 C 7.083 122.911,7.234 122.766,7.420 122.766 C 7.605 122.766,7.757 122.607,7.757 122.413 C 7.757 122.219,8.516 120.936,9.444 119.562 C 10.371 118.187,11.130 116.973,11.130 116.864 C 11.130 116.754,11.800 115.687,12.618 114.491 C 13.437 113.296,14.158 112.184,14.220 112.020 C 14.344 111.697,17.428 109.725,19.056 108.928 C 19.612 108.656,20.143 108.341,20.236 108.229 C 20.329 108.117,21.012 107.745,21.754 107.403 C 22.496 107.061,23.179 106.697,23.272 106.594 C 23.364 106.492,23.744 106.243,24.115 106.040 C 24.486 105.838,25.548 105.251,26.476 104.735 C 27.403 104.220,29.148 103.262,30.354 102.607 C 36.323 99.365,38.534 98.135,38.954 97.823 C 39.140 97.685,40.506 96.918,41.990 96.117 C 47.466 93.164,47.023 93.543,46.210 92.509 C 45.650 91.797,45.604 91.548,45.951 91.120 C 46.306 90.684,46.283 90.633,45.812 90.809 C 45.410 90.960,45.093 90.714,44.698 89.945 C 44.395 89.354,43.813 88.305,43.405 87.613 C 42.998 86.922,42.230 85.556,41.699 84.578 C 41.168 83.600,40.554 82.572,40.334 82.293 C 40.114 82.015,39.495 80.953,38.959 79.933 C 38.422 78.912,37.557 77.403,37.035 76.578 C 36.514 75.753,36.088 74.899,36.088 74.680 C 36.088 74.461,35.875 74.105,35.614 73.889 C 35.354 73.673,34.733 72.706,34.235 71.740 C 33.736 70.774,32.744 68.997,32.030 67.791 C 28.490 61.813,28.377 61.383,30.354 61.383 C 31.096 61.383,31.703 61.519,31.703 61.686 C 31.703 61.853,32.766 62.096,34.064 62.226 C 35.363 62.356,36.425 62.599,36.425 62.766 C 36.425 62.933,36.804 63.069,37.268 63.069 C 37.732 63.069,38.111 63.221,38.111 63.406 C 38.111 63.592,38.642 63.744,39.292 63.744 C 39.941 63.744,40.472 63.880,40.472 64.047 C 40.472 64.213,41.535 64.456,42.833 64.587 C 44.132 64.717,45.194 64.960,45.194 65.127 C 45.194 65.294,45.573 65.430,46.037 65.430 C 46.501 65.430,46.880 65.582,46.880 65.767 C 46.880 65.953,47.411 66.105,48.061 66.105 C 48.710 66.105,49.241 66.240,49.241 66.406 C 49.241 66.572,49.848 66.766,50.590 66.837 C 51.527 66.926,51.939 66.834,51.939 66.535 C 51.939 66.298,52.091 66.105,52.277 66.105 C 52.462 66.105,52.614 65.811,52.614 65.453 C 52.614 65.094,52.917 64.705,53.288 64.587 C 53.659 64.469,53.963 64.090,53.963 63.745 C 53.963 63.400,54.191 62.890,54.469 62.611 C 54.747 62.333,54.975 61.943,54.975 61.744 C 54.975 61.545,55.116 61.383,55.289 61.383 C 55.462 61.383,55.712 61.041,55.843 60.624 C 55.975 60.207,56.365 59.620,56.709 59.320 C 57.054 59.020,57.336 58.667,57.336 58.537 C 57.336 58.406,57.563 58.072,57.841 57.793 C 58.120 57.515,58.347 57.005,58.347 56.660 C 58.347 56.314,58.651 55.936,59.022 55.818 C 59.393 55.700,59.696 55.327,59.696 54.988 C 59.696 54.649,59.924 54.285,60.202 54.178 C 60.481 54.071,60.708 53.732,60.708 53.423 C 60.708 53.114,60.990 52.616,61.335 52.316 C 61.679 52.016,62.069 51.429,62.200 51.012 C 62.332 50.594,62.582 50.253,62.755 50.253 C 62.928 50.253,63.069 50.094,63.069 49.900 C 63.069 49.706,63.449 49.168,63.912 48.705 C 64.376 48.241,64.755 47.696,64.755 47.495 C 64.755 47.293,65.037 46.883,65.382 46.583 C 65.726 46.283,66.116 45.696,66.248 45.278 C 66.379 44.861,66.629 44.519,66.802 44.519 C 66.975 44.519,67.116 44.325,67.116 44.088 C 67.116 43.851,67.420 43.438,67.791 43.170 C 68.162 42.903,68.465 42.449,68.465 42.161 C 68.465 41.873,69.107 41.110,69.891 40.465 C 70.675 39.820,71.851 38.748,72.505 38.084 C 73.500 37.072,78.291 33.727,78.744 33.727 C 78.906 33.727,86.736 28.891,88.098 27.950 C 88.600 27.603,89.087 27.319,89.179 27.319 C 89.328 27.319,93.576 24.714,104.030 18.210 C 107.624 15.975,107.306 16.036,110.961 16.865 C 111.796 17.054,113.314 17.353,114.334 17.529 C 117.475 18.072,121.549 18.863,122.291 19.075 C 122.804 19.220,123.266 18.987,123.978 18.225 C 124.789 17.356,130.383 12.238,133.087 9.891 C 134.259 8.874,140.340 3.319,142.153 1.609 L 143.845 0.015 108.388 0.007 L 72.931 0.000 72.681 13.744 " stroke="none" fill="#5c5c5c" fill-rule="evenodd"></path><path id="path7" d="M399.325 56.324 C 399.325 56.509,398.870 56.661,398.314 56.661 C 397.757 56.661,397.302 56.813,397.302 56.998 C 397.302 57.184,397.074 57.336,396.796 57.336 C 396.518 57.336,396.290 57.478,396.290 57.652 C 396.290 57.826,395.607 58.071,394.772 58.196 C 393.938 58.322,393.255 58.559,393.255 58.723 C 393.255 58.887,393.027 59.022,392.749 59.022 C 392.470 59.022,392.243 59.174,392.243 59.359 C 392.243 59.545,391.939 59.696,391.568 59.696 C 391.197 59.696,390.894 59.846,390.894 60.030 C 390.894 60.213,390.287 60.460,389.545 60.579 C 388.803 60.697,388.196 60.927,388.196 61.089 C 388.196 61.250,387.892 61.383,387.521 61.383 C 387.150 61.383,386.847 61.528,386.847 61.705 C 386.847 61.882,386.315 62.126,385.666 62.248 C 385.017 62.370,384.486 62.605,384.486 62.769 C 384.486 62.934,384.106 63.069,383.642 63.069 C 383.179 63.069,382.799 63.221,382.799 63.406 C 382.799 63.592,382.572 63.744,382.293 63.744 C 382.015 63.744,381.788 63.886,381.788 64.060 C 381.788 64.234,381.105 64.479,380.270 64.604 C 379.435 64.730,378.752 64.967,378.752 65.131 C 378.752 65.295,378.524 65.430,378.246 65.430 C 377.968 65.430,377.740 65.582,377.740 65.767 C 377.740 65.953,377.437 66.105,377.066 66.105 C 376.695 66.105,376.391 66.255,376.391 66.438 C 376.391 66.621,375.784 66.868,375.042 66.987 C 374.300 67.105,373.693 67.335,373.693 67.497 C 373.693 67.659,373.390 67.791,373.019 67.791 C 372.648 67.791,372.344 67.936,372.344 68.113 C 372.344 68.290,371.818 68.534,371.175 68.654 C 370.486 68.784,369.928 69.119,369.816 69.472 C 369.551 70.306,367.747 70.615,366.842 69.981 C 366.023 69.407,361.889 69.268,361.889 69.815 C 361.889 70.021,360.315 70.152,357.841 70.152 C 355.368 70.152,353.794 70.283,353.794 70.489 C 353.794 70.696,352.125 70.826,349.462 70.826 C 345.575 70.826,345.068 70.895,344.527 71.493 C 344.195 71.860,343.797 72.081,343.642 71.986 C 343.375 71.821,342.051 72.400,339.798 73.669 C 339.241 73.982,338.027 74.657,337.099 75.168 C 336.172 75.680,333.895 76.942,332.040 77.972 C 330.185 79.002,327.757 80.346,326.644 80.957 C 325.531 81.569,324.054 82.423,323.363 82.856 C 322.671 83.289,322.037 83.642,321.954 83.642 C 321.872 83.642,320.161 84.576,318.153 85.718 C 316.145 86.859,313.820 88.167,312.985 88.625 C 308.830 90.904,307.893 91.503,307.296 92.262 C 306.940 92.715,306.567 93.086,306.467 93.086 C 306.368 93.086,305.327 93.524,304.155 94.059 C 302.983 94.594,300.354 95.752,298.314 96.632 C 296.273 97.513,293.769 98.606,292.749 99.063 C 291.728 99.519,289.831 100.357,288.533 100.926 C 287.234 101.494,285.413 102.301,284.486 102.719 C 283.000 103.389,276.139 106.391,272.850 107.810 C 272.201 108.091,271.393 108.467,271.055 108.647 C 270.716 108.827,269.844 109.285,269.115 109.665 C 267.802 110.349,267.791 110.371,267.791 112.344 C 267.791 113.446,267.640 114.334,267.454 114.334 C 267.261 114.334,267.116 115.346,267.116 116.695 C 267.116 117.993,266.980 119.056,266.814 119.056 C 266.647 119.056,266.401 121.105,266.267 123.609 C 266.133 126.113,265.890 128.162,265.727 128.162 C 265.563 128.162,265.430 129.224,265.430 130.523 C 265.430 131.821,265.295 132.884,265.131 132.884 C 264.966 132.884,264.721 135.008,264.587 137.605 C 264.452 140.202,264.208 142.327,264.043 142.327 C 263.878 142.327,263.744 143.086,263.744 144.013 L 263.744 145.700 261.720 145.700 C 260.607 145.700,259.696 145.566,259.696 145.403 C 259.696 145.240,254.688 144.994,248.567 144.857 C 242.445 144.720,237.437 144.474,237.437 144.310 C 237.437 143.696,231.982 143.966,231.498 144.604 C 230.970 145.299,230.881 146.712,231.366 146.712 C 231.559 146.712,231.703 147.723,231.703 149.073 C 231.703 150.422,231.848 151.433,232.040 151.433 C 232.233 151.433,232.378 152.445,232.378 153.794 C 232.378 155.093,232.514 156.155,232.680 156.155 C 232.846 156.155,233.092 158.356,233.227 161.046 C 233.361 163.735,233.605 165.936,233.768 165.936 C 233.931 165.936,234.064 166.986,234.064 168.269 C 234.064 169.552,234.202 170.652,234.371 170.714 C 234.540 170.776,234.708 171.965,234.744 173.356 C 234.850 177.362,235.012 177.066,232.715 177.066 C 231.591 177.066,230.691 177.216,230.691 177.403 C 230.691 177.604,229.399 177.740,227.487 177.740 C 225.725 177.740,224.283 177.875,224.283 178.039 C 224.283 178.203,221.400 178.448,217.875 178.583 C 214.351 178.719,211.467 178.964,211.467 179.128 C 211.467 179.292,210.025 179.427,208.263 179.427 C 206.501 179.427,205.059 179.561,205.059 179.725 C 205.059 179.889,202.175 180.134,198.651 180.270 C 195.126 180.405,192.243 180.651,192.243 180.815 C 192.243 180.979,191.939 181.113,191.568 181.113 C 190.544 181.113,190.723 182.369,191.906 183.474 C 192.462 183.994,192.917 184.579,192.917 184.774 C 192.917 184.969,193.676 185.887,194.604 186.814 C 195.531 187.742,196.290 188.590,196.290 188.700 C 196.290 188.923,196.911 189.708,197.571 190.320 C 199.337 191.955,199.663 192.314,199.663 192.625 C 199.663 192.818,200.497 193.791,201.518 194.787 C 202.538 195.783,203.373 196.754,203.373 196.945 C 203.373 197.137,204.132 198.056,205.059 198.988 C 205.987 199.921,206.745 200.821,206.745 200.988 C 206.745 201.156,206.935 201.363,207.167 201.448 C 207.399 201.533,206.488 201.717,205.143 201.857 C 203.798 201.996,202.698 202.243,202.698 202.404 C 202.698 202.566,202.015 202.698,201.180 202.698 C 200.346 202.698,199.663 202.836,199.663 203.005 C 199.663 203.174,198.373 203.420,196.796 203.551 C 195.219 203.682,193.929 203.924,193.929 204.087 C 193.929 204.251,193.246 204.384,192.411 204.384 C 191.577 204.384,190.894 204.536,190.894 204.722 C 190.894 204.907,190.287 205.059,189.545 205.059 C 188.803 205.059,188.196 205.200,188.196 205.373 C 188.196 205.546,186.981 205.793,185.497 205.923 C 184.013 206.052,182.799 206.290,182.799 206.452 C 182.799 206.613,182.192 206.745,181.450 206.745 C 180.708 206.745,180.101 206.881,180.101 207.047 C 180.101 207.213,178.735 207.456,177.066 207.589 C 175.396 207.721,174.030 207.964,174.030 208.130 C 174.030 208.296,173.423 208.432,172.681 208.432 C 171.939 208.432,171.332 208.583,171.332 208.769 C 171.332 208.954,170.662 209.106,169.843 209.106 C 169.023 209.106,168.302 209.247,168.241 209.418 C 168.179 209.590,167.218 209.798,166.105 209.882 C 164.079 210.034,162.938 210.337,162.857 210.744 C 162.694 211.570,162.583 213.141,162.237 219.562 C 162.023 223.550,161.743 227.723,161.615 228.836 L 161.383 230.860 157.841 231.424 C 155.894 231.735,153.162 232.170,151.771 232.391 C 150.379 232.612,147.268 233.073,144.857 233.416 C 142.445 233.759,137.968 234.423,134.907 234.892 C 131.847 235.360,128.849 235.745,128.246 235.747 C 127.515 235.749,127.150 235.913,127.150 236.239 C 127.150 236.508,126.050 237.973,124.705 239.495 C 123.360 241.016,120.894 243.803,119.224 245.688 C 113.401 252.263,111.800 254.074,111.191 254.775 C 108.553 257.812,104.218 262.747,101.686 265.593 C 100.017 267.470,97.816 269.972,96.796 271.152 C 94.436 273.883,94.119 274.199,93.736 274.199 C 93.316 274.199,93.320 290.295,93.740 290.444 C 93.979 290.529,94.298 307.348,94.121 310.540 C 94.108 310.772,93.794 310.961,93.423 310.961 C 93.049 310.961,92.749 311.186,92.749 311.467 C 92.749 311.745,92.607 311.973,92.434 311.973 C 92.261 311.973,92.018 312.293,91.894 312.684 C 91.770 313.075,90.621 314.440,89.342 315.717 C 88.062 316.994,87.015 318.198,87.015 318.391 C 87.015 318.585,86.294 319.421,85.413 320.250 C 84.532 321.079,83.680 321.891,83.521 322.055 C 82.198 323.413,81.667 324.106,81.468 324.733 C 81.340 325.135,81.102 325.464,80.937 325.464 C 80.548 325.464,78.921 327.091,78.921 327.480 C 78.921 327.645,78.611 327.877,78.232 327.998 C 77.824 328.127,77.464 328.616,77.347 329.201 C 77.239 329.742,77.025 330.185,76.872 330.185 C 76.423 330.185,72.513 334.213,72.513 334.674 C 72.513 334.906,72.209 335.314,71.838 335.582 C 71.467 335.849,71.164 336.338,71.164 336.668 C 71.164 337.446,164.285 337.623,165.051 336.847 C 165.689 336.201,165.981 335.202,165.655 334.780 C 165.494 334.572,164.947 332.808,164.438 330.860 C 163.929 328.912,163.230 326.332,162.884 325.126 C 162.537 323.921,162.007 321.948,161.704 320.742 C 161.402 319.536,160.869 317.563,160.519 316.358 C 160.169 315.152,159.641 313.103,159.345 311.804 C 159.049 310.506,158.514 308.546,158.155 307.449 C 157.241 304.647,157.302 304.001,158.540 303.360 C 159.330 302.952,159.489 302.721,159.212 302.387 C 158.841 301.940,159.074 301.146,160.507 297.976 C 161.299 296.224,162.936 292.440,164.008 289.882 C 166.318 284.371,167.053 282.663,167.780 281.113 C 168.587 279.391,169.473 277.339,171.349 272.850 C 173.592 267.481,175.810 262.732,176.074 262.732 C 176.227 262.732,180.012 263.962,184.487 265.465 C 193.956 268.646,192.641 268.914,195.419 263.238 C 201.987 249.822,205.396 242.741,205.396 242.519 C 205.396 241.904,206.788 241.097,208.305 240.834 C 209.701 240.592,214.926 239.440,219.224 238.427 C 219.874 238.274,221.543 237.900,222.934 237.595 C 226.125 236.896,227.684 236.545,230.017 236.001 L 231.872 235.568 232.118 233.888 C 232.254 232.965,232.466 225.656,232.589 217.647 L 232.812 203.084 235.040 202.519 C 236.266 202.209,237.572 201.830,237.943 201.677 C 238.314 201.525,238.997 201.324,239.460 201.232 C 240.328 201.060,243.443 200.235,245.531 199.625 C 246.180 199.436,247.243 199.154,247.892 198.998 C 248.541 198.843,249.983 198.457,251.096 198.141 C 254.117 197.284,255.355 196.950,256.661 196.640 C 257.310 196.487,260.270 195.729,263.238 194.956 L 268.634 193.551 284.305 177.973 C 292.925 169.405,300.034 162.278,300.103 162.136 C 300.592 161.131,301.359 160.877,303.903 160.877 C 305.373 160.877,306.577 161.011,306.577 161.175 C 306.577 161.339,309.460 161.584,312.985 161.720 C 316.509 161.856,319.393 162.101,319.393 162.265 C 319.393 162.429,320.683 162.563,322.260 162.563 C 323.836 162.563,325.126 162.697,325.126 162.862 C 325.126 163.026,328.010 163.271,331.535 163.406 C 335.059 163.542,337.943 163.787,337.943 163.951 C 337.943 164.115,339.157 164.250,340.641 164.250 C 342.215 164.250,343.339 164.109,343.339 163.912 C 343.339 163.727,343.201 163.575,343.033 163.575 C 342.865 163.575,342.623 162.816,342.496 161.889 C 342.368 160.961,342.126 160.202,341.958 160.202 C 341.790 160.202,341.653 159.823,341.653 159.359 C 341.653 158.895,341.501 158.516,341.315 158.516 C 341.130 158.516,340.978 158.137,340.978 157.673 C 340.978 157.209,340.846 156.830,340.685 156.830 C 340.524 156.830,340.306 156.188,340.201 155.404 C 340.096 154.619,339.848 153.924,339.651 153.858 C 339.453 153.792,339.292 153.371,339.292 152.923 C 339.292 152.475,339.154 152.108,338.986 152.108 C 338.818 152.108,338.576 151.349,338.449 150.422 C 338.321 149.494,338.079 148.735,337.911 148.735 C 337.743 148.735,337.605 148.280,337.605 147.723 C 337.605 147.167,337.454 146.712,337.268 146.712 C 337.083 146.712,336.931 146.332,336.931 145.868 C 336.931 145.405,336.793 145.025,336.625 145.025 C 336.457 145.025,336.215 144.266,336.088 143.339 C 335.960 142.411,335.718 141.653,335.550 141.653 C 335.382 141.653,335.245 141.273,335.245 140.809 C 335.245 140.346,335.093 139.966,334.907 139.966 C 334.722 139.966,334.570 139.511,334.570 138.954 C 334.570 138.398,334.435 137.943,334.271 137.943 C 334.107 137.943,333.864 137.222,333.732 136.341 C 333.600 135.460,333.350 134.651,333.176 134.543 C 332.633 134.207,333.253 133.160,333.855 133.398 C 334.155 133.516,338.044 134.821,342.496 136.298 C 346.948 137.775,350.970 139.149,351.433 139.351 C 353.088 140.073,353.678 140.284,357.841 141.639 C 360.160 142.393,362.335 143.169,362.673 143.362 C 363.630 143.908,366.610 144.182,366.610 143.723 C 366.610 143.446,369.044 143.339,375.379 143.339 C 380.544 143.339,384.148 143.210,384.148 143.026 C 384.148 142.847,387.203 142.667,391.288 142.605 C 396.620 142.523,398.462 142.389,398.567 142.074 C 398.644 141.842,398.998 141.653,399.354 141.653 C 399.987 141.653,400.000 140.807,400.000 98.820 C 400.000 70.489,399.886 55.987,399.663 55.987 C 399.477 55.987,399.325 56.138,399.325 56.324 M186.421 186.323 C 186.099 186.559,185.835 186.925,185.835 187.137 C 185.835 187.348,185.699 187.521,185.534 187.521 C 185.368 187.521,185.148 187.741,185.045 188.010 C 184.921 188.332,185.019 188.436,185.333 188.316 C 185.595 188.215,185.894 187.865,185.998 187.538 C 186.102 187.211,186.516 186.796,186.918 186.617 C 187.320 186.437,187.504 186.202,187.328 186.093 C 187.152 185.984,186.744 186.088,186.421 186.323 M183.671 189.087 C 183.388 189.823,183.763 190.165,184.162 189.535 C 184.560 188.904,184.569 188.533,184.184 188.533 C 184.019 188.533,183.788 188.782,183.671 189.087 M180.691 192.319 C 179.361 193.869,179.546 194.166,180.944 192.726 C 181.594 192.057,182.125 191.448,182.125 191.371 C 182.125 190.958,181.511 191.364,180.691 192.319 M176.637 196.604 C 176.124 197.147,175.843 197.677,176.012 197.782 C 176.182 197.887,176.408 197.746,176.514 197.469 C 176.620 197.191,176.940 196.965,177.224 196.965 C 177.508 196.965,177.740 196.901,177.740 196.824 C 177.740 196.746,177.832 196.442,177.945 196.149 C 178.267 195.311,177.657 195.523,176.637 196.604 M174.043 199.389 C 173.665 199.795,173.365 200.364,173.377 200.654 C 173.391 200.996,173.501 200.925,173.693 200.451 C 173.854 200.050,174.300 199.623,174.683 199.501 C 175.066 199.379,175.379 199.138,175.379 198.965 C 175.379 198.424,174.759 198.621,174.043 199.389 M166.369 207.578 C 163.992 210.064,164.588 210.170,167.046 207.698 C 168.120 206.618,168.803 205.735,168.563 205.736 C 168.324 205.737,167.336 206.566,166.369 207.578 " stroke="none" fill="#2c2c2c" fill-rule="evenodd"></path><path id="path8" d="M-0.000 43.896 C -0.000 87.655,0.002 87.790,0.666 86.982 C 1.032 86.537,1.471 86.041,1.640 85.881 C 1.810 85.721,2.707 84.832,3.634 83.904 C 4.562 82.977,5.473 82.066,5.658 81.881 C 6.094 81.446,7.571 79.969,8.066 79.473 C 9.889 77.649,11.808 75.885,11.971 75.885 C 12.195 75.885,12.980 75.265,13.591 74.604 C 14.112 74.041,15.357 72.797,15.920 72.276 C 16.160 72.053,16.543 71.673,16.770 71.433 C 16.996 71.192,17.355 70.822,17.566 70.611 C 18.061 70.116,19.526 68.652,20.021 68.156 C 20.232 67.945,20.602 67.587,20.842 67.360 C 21.083 67.133,21.463 66.751,21.686 66.510 C 21.909 66.269,22.449 65.717,22.887 65.283 C 23.882 64.297,24.163 64.016,25.148 63.022 C 25.582 62.584,26.134 62.044,26.375 61.821 C 26.891 61.342,27.418 60.703,27.773 60.122 C 27.913 59.893,27.783 58.451,27.483 56.918 C 27.184 55.386,26.785 53.297,26.598 52.277 C 26.410 51.256,26.130 49.890,25.975 49.241 C 25.820 48.592,25.508 46.922,25.281 45.531 C 25.054 44.140,24.745 42.243,24.594 41.315 C 24.443 40.388,24.151 38.870,23.946 37.943 C 23.741 37.015,23.367 35.042,23.117 33.558 C 22.866 32.074,22.503 30.025,22.311 29.005 C 19.757 15.465,19.621 16.641,23.534 18.417 C 24.513 18.861,25.442 19.224,25.599 19.224 C 25.757 19.224,27.081 19.760,28.541 20.414 C 31.796 21.873,32.159 22.028,34.064 22.771 C 34.899 23.097,36.246 23.656,37.057 24.014 C 37.869 24.371,39.311 24.967,40.261 25.337 C 41.212 25.708,43.052 26.472,44.351 27.036 C 46.971 28.174,49.480 29.224,52.277 30.353 C 53.297 30.764,54.890 31.446,55.818 31.868 C 56.745 32.290,58.187 32.898,59.022 33.220 C 61.470 34.164,65.185 35.739,66.216 36.270 C 66.741 36.541,67.338 36.762,67.543 36.762 C 67.748 36.762,68.567 37.078,69.363 37.463 C 72.357 38.912,72.203 40.015,72.681 13.744 L 72.931 -0.000 36.466 -0.000 L 0.000 0.000 -0.000 43.896 " stroke="none" fill="#666666" fill-rule="evenodd"></path></g></svg>