<?xml version="1.0" standalone="no"?>
<!DOCTYPE svg PUBLIC "-//W3C//DTD SVG 20010904//EN"
 "http://www.w3.org/TR/2001/REC-SVG-20010904/DTD/svg10.dtd">
<svg version="1.0" xmlns="http://www.w3.org/2000/svg"
 width="1920.000000pt" height="1080.000000pt" viewBox="0 0 1920.000000 1080.000000"
 preserveAspectRatio="xMidYMid meet">

<g transform="translate(0.000000,1080.000000) scale(0.100000,-0.100000)"
fill="#000000" stroke="none">
<path d="M484 10484 c-16 -8 -39 -29 -49 -47 -18 -30 -19 -56 -20 -357 0 -268
-3 -337 -17 -395 -9 -38 -26 -139 -37 -223 -11 -84 -27 -165 -36 -181 -8 -16
-37 -43 -64 -60 -59 -36 -85 -79 -77 -126 4 -18 29 -58 61 -95 30 -35 60 -80
65 -99 5 -20 10 -147 10 -284 0 -314 30 -651 86 -962 14 -77 30 -191 35 -254
11 -143 21 -180 57 -214 63 -61 150 -35 184 53 22 57 23 223 3 335 -44 237
-57 333 -80 564 -18 185 -25 313 -25 472 0 286 -4 282 206 239 174 -36 442
-79 684 -110 225 -29 369 -46 780 -91 102 -11 318 -36 480 -55 352 -43 459
-47 513 -20 71 35 88 112 37 170 -39 44 -95 62 -235 76 -60 6 -200 22 -310 35
-272 33 -435 52 -658 75 -286 30 -744 88 -912 116 -193 32 -451 82 -492 95
-45 14 -73 53 -73 100 0 55 27 257 51 384 12 61 25 177 28 258 7 132 9 150 28
169 21 20 26 21 105 10 46 -7 135 -14 198 -17 254 -12 1180 -81 1615 -121 94
-8 285 -31 425 -50 290 -39 324 -40 379 -18 67 27 90 89 56 154 -19 36 -89 73
-165 89 -168 33 -750 96 -1155 125 -44 3 -192 15 -330 25 -137 11 -358 27
-490 36 -446 30 -445 30 -511 62 -32 17 -81 35 -109 42 -33 8 -64 26 -92 52
-41 38 -80 59 -106 59 -7 0 -26 -7 -43 -16z"/>
<path d="M4444 10105 c-33 -33 -48 -62 -63 -112 -27 -91 -78 -409 -97 -607 -8
-89 -19 -201 -24 -251 -5 -49 -12 -245 -16 -435 -7 -354 3 -561 41 -902 23
-202 119 -665 179 -862 41 -134 119 -203 200 -176 91 30 106 103 52 258 -19
57 -58 205 -85 330 -76 348 -88 430 -117 802 -19 250 -14 788 11 1020 7 74 17
169 20 210 8 99 51 379 77 505 27 135 22 199 -21 237 -24 21 -41 28 -73 28
-36 0 -47 -6 -84 -45z"/>
<path d="M13611 9523 c-18 -9 -53 -42 -77 -72 -81 -103 -329 -620 -420 -874
-20 -56 -67 -183 -105 -282 -63 -165 -128 -378 -246 -800 -24 -88 -59 -209
-78 -270 -19 -60 -50 -168 -69 -239 -37 -136 -57 -170 -106 -181 -35 -8 -190
18 -305 52 -84 24 -97 25 -220 18 -71 -4 -288 -10 -480 -14 -346 -6 -351 -7
-400 -31 -65 -32 -92 -82 -75 -135 6 -19 24 -43 38 -54 57 -40 99 -43 497 -40
380 3 490 -2 733 -37 194 -27 195 -30 132 -303 -17 -74 -42 -218 -56 -320 -14
-102 -46 -306 -70 -453 -52 -319 -108 -761 -124 -983 -7 -96 -10 -333 -8 -590
l3 -430 73 -260 c41 -143 88 -298 106 -345 104 -268 378 -729 563 -947 43 -50
121 -142 174 -205 134 -158 286 -300 486 -457 263 -206 374 -277 678 -437 157
-82 538 -242 690 -289 66 -20 170 -54 231 -75 140 -48 369 -112 499 -140 144
-31 466 -39 623 -16 136 20 262 56 343 97 74 37 318 201 389 260 29 24 95 91
146 149 171 192 387 427 549 598 240 252 465 550 718 947 117 184 365 550 437
645 96 127 247 354 284 429 l36 71 0 326 c0 303 -1 325 -17 313 -12 -11 -58
-14 -187 -15 -135 0 -196 -5 -291 -23 -107 -21 -150 -23 -400 -24 -311 0 -539
-9 -630 -26 -33 -6 -130 -20 -215 -31 -85 -12 -225 -35 -309 -51 -251 -49
-351 -59 -643 -66 -366 -8 -356 -14 -296 187 31 104 73 343 89 505 11 118 6
1183 -7 1477 -9 182 -26 171 286 186 135 7 351 12 481 12 253 0 405 9 644 40
83 10 267 24 410 29 500 21 493 20 557 79 50 47 62 95 42 163 -18 59 -79 125
-204 219 -298 225 -881 755 -1039 945 -36 44 -122 142 -190 219 -210 238 -290
345 -462 618 -118 187 -139 216 -171 236 -69 43 -124 41 -178 -4 -47 -40 -60
-74 -75 -202 -8 -64 -17 -128 -20 -142 -2 -14 -10 -77 -16 -140 -13 -140 -30
-209 -124 -505 -175 -548 -244 -863 -245 -1117 0 -48 -5 -98 -11 -112 -13 -27
-49 -48 -119 -66 -203 -54 -255 -235 -88 -305 24 -10 69 -15 126 -15 99 0 114
-8 125 -67 13 -70 22 -463 22 -993 0 -531 -1 -561 -23 -700 -55 -343 -122
-504 -220 -526 -15 -3 -33 -7 -40 -10 -21 -6 -367 25 -527 48 -175 25 -464 30
-585 10 -116 -20 -405 -88 -620 -147 -200 -55 -347 -87 -620 -132 -135 -22
-193 -26 -450 -30 -355 -6 -461 3 -499 41 l-26 26 -3 298 c-2 164 2 366 8 452
16 212 74 680 110 880 16 91 38 233 50 315 47 337 62 427 95 570 54 232 57
234 288 211 317 -32 659 -48 1160 -53 753 -8 973 15 1052 109 35 42 35 106 -1
142 -45 45 -88 50 -253 29 -209 -26 -1119 -26 -1525 0 -363 24 -521 40 -542
58 -45 37 -43 50 76 454 71 241 173 597 206 719 13 48 49 152 78 230 30 77 76
200 102 271 90 250 246 594 369 815 30 52 59 114 65 138 30 114 -58 195 -159
145z m3103 -1259 c23 -28 73 -95 113 -150 40 -54 120 -153 178 -219 58 -66
163 -187 234 -270 171 -200 507 -520 853 -812 219 -185 217 -192 -64 -205
-106 -5 -260 -18 -343 -29 -235 -30 -370 -39 -645 -39 -140 0 -349 -5 -465
-11 -246 -13 -278 -7 -308 51 -16 31 -18 53 -13 175 2 77 10 167 16 200 37
202 90 404 198 750 112 360 122 398 138 490 25 145 40 154 108 69z m2322
-4405 c27 -23 15 -73 -52 -204 -75 -148 -156 -275 -288 -455 -113 -153 -329
-470 -464 -682 -223 -349 -464 -675 -631 -854 -42 -44 -143 -152 -226 -240
-82 -88 -211 -227 -285 -309 -198 -219 -244 -262 -366 -347 -193 -133 -267
-165 -439 -193 -117 -19 -362 -19 -490 0 -131 20 -329 72 -545 145 -96 32
-218 72 -270 88 -153 48 -511 206 -694 305 -207 112 -334 196 -536 353 -258
202 -363 307 -654 658 -141 171 -396 598 -488 820 -30 72 -118 376 -118 407 0
9 8 26 18 38 17 22 22 22 397 25 337 2 395 5 510 25 263 44 498 92 613 126
139 40 492 127 619 151 127 25 375 23 568 -4 83 -12 229 -28 325 -36 116 -10
195 -22 234 -36 66 -22 153 -26 206 -9 22 7 182 15 420 19 428 9 493 14 760
66 102 19 266 47 365 60 99 13 214 29 255 35 41 6 247 12 458 14 325 4 402 7
505 24 67 11 136 22 152 25 46 6 125 -2 141 -15z"/>
<path d="M8456 9095 c-57 -20 -84 -52 -177 -206 -94 -157 -161 -238 -253 -303
-130 -93 -251 -137 -500 -182 -138 -26 -145 -26 -510 -21 -416 5 -499 14 -766
77 -274 64 -404 119 -467 197 -83 103 -107 123 -152 123 -76 0 -130 -80 -114
-170 32 -187 244 -308 738 -419 253 -57 410 -70 840 -71 334 -1 361 1 595 51
273 57 448 147 624 320 50 49 99 89 108 89 25 0 38 -31 55 -134 20 -129 29
-636 14 -789 -15 -142 -67 -372 -110 -483 -41 -106 -120 -236 -179 -297 -133
-135 -353 -232 -673 -296 -247 -49 -336 -56 -864 -66 -159 -3 -315 -11 -345
-17 -162 -31 -162 -202 0 -237 62 -14 606 -7 860 10 325 21 707 112 915 217
100 50 226 136 286 195 102 100 235 340 283 511 80 281 100 463 93 859 -4 272
-9 330 -41 577 -50 374 -65 422 -150 461 -49 22 -59 22 -110 4z"/>
<path d="M9294 6221 c-34 -21 -64 -59 -82 -106 -16 -41 -125 -574 -167 -819
-19 -110 -46 -251 -60 -315 -89 -423 -107 -503 -124 -561 -11 -36 -25 -103
-31 -150 -11 -77 -85 -381 -176 -715 -42 -154 -180 -593 -235 -750 -47 -132
-123 -288 -190 -390 -71 -110 -89 -149 -89 -198 0 -33 6 -51 24 -70 70 -76
179 -30 279 117 104 153 179 327 295 681 118 360 142 441 247 845 36 140 73
265 81 278 25 38 56 44 126 22 76 -23 626 -156 685 -165 59 -9 128 -56 152
-103 11 -22 43 -102 72 -178 91 -245 273 -691 404 -989 156 -354 219 -511 281
-697 47 -138 48 -147 46 -243 -8 -286 -8 -286 20 -342 32 -60 67 -90 114 -99
45 -8 76 0 114 32 67 57 76 150 35 387 -50 296 -104 454 -335 982 -211 481
-432 1026 -446 1099 -9 50 16 70 80 63 358 -40 1033 -47 1146 -12 67 21 105
47 125 85 29 55 13 114 -38 142 -16 9 -133 13 -462 13 -438 1 -598 10 -785 41
-202 34 -211 44 -319 370 -45 137 -116 335 -156 439 -40 105 -109 305 -153
445 -44 140 -100 311 -125 380 -25 69 -64 183 -87 255 -47 145 -76 197 -123
225 -41 25 -103 25 -143 1z m132 -656 c9 -14 54 -145 101 -292 46 -148 112
-338 145 -423 74 -189 198 -556 198 -586 0 -68 -23 -69 -275 -8 -406 97 -441
115 -439 227 0 34 20 148 43 252 24 105 64 312 91 460 61 347 74 395 105 395
8 0 22 -11 31 -25z"/>
<path d="M5862 5585 c-233 -27 -418 -57 -707 -116 -352 -71 -645 -152 -772
-214 -134 -65 -304 -183 -498 -344 -269 -224 -316 -291 -323 -462 -7 -169 34
-284 209 -577 183 -307 436 -650 759 -1027 232 -272 551 -656 578 -698 35 -52
20 -61 -53 -30 -38 17 -80 27 -113 27 -48 1 -56 -2 -83 -32 -73 -81 -13 -179
193 -313 120 -78 209 -120 338 -161 l105 -33 425 0 c409 0 429 1 535 24 200
43 295 80 417 163 207 140 317 344 467 863 75 259 147 620 171 850 8 72 10
257 8 530 -5 455 -10 504 -73 751 -27 103 -118 306 -176 391 -48 71 -156 180
-223 225 -117 80 -285 143 -466 173 -134 23 -554 29 -718 10z m688 -269 c195
-35 318 -93 425 -201 65 -64 91 -100 132 -180 58 -114 80 -180 120 -361 l28
-129 0 -470 c0 -467 0 -471 -27 -627 -83 -476 -207 -904 -329 -1140 -68 -130
-184 -230 -324 -279 -32 -11 -102 -30 -154 -42 -90 -20 -122 -22 -491 -22
-350 0 -399 2 -431 17 -62 29 -65 41 -30 95 36 54 41 113 13 155 -9 14 -72 86
-138 160 -67 73 -204 232 -305 353 -102 121 -255 303 -342 405 -285 333 -575
732 -736 1014 -173 303 -182 393 -53 519 193 188 467 386 625 454 215 90 842
226 1312 284 185 23 567 20 705 -5z"/>
<path d="M683 5402 c-28 -21 -53 -81 -53 -124 0 -37 72 -362 119 -539 36 -137
68 -336 81 -496 11 -145 3 -950 -11 -1163 -6 -85 -16 -351 -23 -590 -13 -450
-16 -480 -55 -480 -10 0 -50 14 -87 32 -52 25 -83 32 -127 33 -54 0 -61 -3
-88 -33 -67 -75 -21 -157 141 -254 158 -95 179 -126 190 -290 8 -125 35 -184
94 -212 64 -30 100 -19 180 54 60 53 76 58 151 40 22 -5 112 -18 200 -30 88
-11 209 -32 268 -45 60 -14 188 -37 285 -51 216 -33 464 -36 732 -10 422 40
594 91 719 209 87 84 109 137 187 451 70 281 74 360 25 460 -60 123 -166 195
-475 324 -207 86 -343 133 -793 271 -327 101 -370 117 -389 146 -19 30 -11 48
63 130 190 210 316 485 393 855 37 179 47 303 31 396 -11 61 -123 409 -164
506 -24 57 -100 133 -160 158 -115 50 -309 35 -453 -34 -206 -99 -325 -245
-444 -546 -88 -223 -107 -251 -130 -197 -6 12 -21 90 -35 172 -14 83 -39 200
-55 260 -16 61 -47 191 -70 290 -44 194 -75 273 -120 305 -35 25 -97 26 -127
2z m1301 -496 c53 -22 72 -58 135 -249 71 -220 77 -260 56 -403 -57 -384 -187
-677 -390 -881 -80 -80 -84 -83 -129 -83 -35 0 -66 10 -132 45 -65 34 -96 45
-130 45 -123 0 -188 -104 -132 -210 46 -86 212 -194 368 -240 41 -12 129 -44
195 -70 138 -55 290 -105 670 -221 252 -77 543 -185 713 -266 117 -55 172
-116 172 -190 0 -52 -101 -437 -128 -486 -61 -113 -182 -154 -582 -193 -333
-33 -646 -16 -927 51 -57 14 -187 36 -291 50 -275 36 -319 54 -342 136 -13 43
-12 388 0 589 32 496 52 849 60 1025 12 271 7 251 162 735 108 337 177 515
237 607 99 153 303 256 415 209z"/>
</g>
</svg>
