<?xml version="1.0" standalone="no"?>
<!DOCTYPE svg PUBLIC "-//W3C//DTD SVG 20010904//EN"
 "http://www.w3.org/TR/2001/REC-SVG-20010904/DTD/svg10.dtd">
<svg version="1.0" xmlns="http://www.w3.org/2000/svg"
 width="820.000000pt" height="650.000000pt" viewBox="0 0 820.000000 650.000000"
 preserveAspectRatio="xMidYMid meet">

<g transform="translate(0.000000,650.000000) scale(0.100000,-0.100000)"
fill="#000000" stroke="none">
<path d="M4203 6092 c-7 -4 -71 -152 -142 -327 -71 -176 -174 -428 -229 -560
-269 -650 -597 -1446 -807 -1961 -129 -314 -335 -817 -460 -1118 -124 -300
-243 -590 -264 -644 -62 -154 -65 -208 -16 -230 19 -9 256 -12 910 -12 l885 0
0 -64 0 -64 -76 -7 c-42 -4 -227 -4 -412 0 l-337 8 -64 -112 c-62 -109 -64
-111 -100 -111 -20 0 -106 -4 -191 -10 -85 -5 -317 -14 -515 -20 -197 -6 -360
-12 -361 -13 -1 -1 25 -101 60 -222 l61 -220 1795 0 1795 0 41 22 c157 84 322
310 385 526 32 111 30 112 -137 98 -71 -6 -152 -14 -180 -17 l-52 -6 -22 68
c-120 364 -834 2371 -1130 3174 -239 649 -232 632 -269 628 -37 -4 -38 -35 -2
-105 102 -202 188 -595 227 -1028 21 -234 21 -697 0 -940 -46 -538 -167 -1076
-299 -1330 l-26 -50 -1 2316 c0 1787 -3 2318 -12 2327 -14 14 -37 15 -55 4z
m452 -4912 c337 -35 557 -68 745 -110 179 -41 190 -46 112 -55 -35 -4 -121
-10 -190 -14 l-127 -8 -262 59 -261 58 -201 0 -201 0 0 51 0 52 98 -7 c53 -4
183 -16 287 -26z"/>
</g>
</svg>
